<?xml version="1.0" encoding="utf-8"?>
<!-- Generator: Adobe Illustrator 21.0.0, SVG Export Plug-In . SVG Version: 6.00 Build 0)  -->
<svg version="1.1" id="Layer_1" xmlns="http://www.w3.org/2000/svg" xmlns:xlink="http://www.w3.org/1999/xlink" x="0px" y="0px"
	 width="1400px" height="980px" viewBox="0 0 1400 980" enable-background="new 0 0 1400 980" xml:space="preserve">
<rect x="3.8502049" fill="#BBC9E7" width="1400" height="980"/>
<g>
	<path fill="#E7EBF2" d="M402.3482971,86.5420532c8.2836914-0.104187,14.8936768-6.6574707,14.7637939-14.6370239
		c-0.1299438-7.9796104-6.9505615-14.3639488-15.234314-14.2598228c-8.2836304,0.104126-14.8936157,6.6574059-14.7636719,14.6369591
		C387.243988,80.2617188,394.0646057,86.6461792,402.3482971,86.5420532z"/>
	<path fill="#E7EBF2" d="M536.8601074,927.6965942c-8.2836304,0.104248-14.8936157,6.6574707-14.7637329,14.6369629
		c0.1299438,7.9797363,6.9505615,14.3640137,15.2342529,14.2598877s14.8936768-6.6574707,14.7637329-14.637085
		C551.9644775,933.9768677,545.1437988,927.5924683,536.8601074,927.6965942z"/>
	<path fill="#E7EBF2" d="M1389.1740723,509.201416c-1.9562988-120.1456299-53.8254395-224.4812622-129.4179688-280.1221924
		c2.6291504-12.175354,3.925293-24.8167114,3.7141113-37.7783813
		c-1.5432129-94.7817383-82.5578613-170.612915-180.9516602-169.3758545
		c-65.8267212,0.8276367-122.7483521,35.9434814-152.7600708,87.4769287
		c-23.4963379-7.0925903-48.9714355-10.8334961-75.5527344-10.4993286
		c-41.3884277,0.5203857-79.7952881,10.8209229-111.9685059,28.1538696
		c-29.5383301-57.6182861-91.5314941-96.9345093-162.5991211-96.0410156
		c-65.8265991,0.8275757-122.7481995,35.9434776-152.7597961,87.4768677
		c-23.4963989-7.0925903-48.9714355-10.8334961-75.5529175-10.4992676
		c-105.3839264,1.3249512-191.4619904,66.0320435-204.4278717,148.890625
		c-6.4455566-2.881897-13.296936-4.4189453-20.3928833-4.3297729
		c-36.0932617,0.4537964-64.6781006,42.2645264-63.8456993,93.3867188
		c0.4379883,26.895752,8.933712,51.0062866,22.1408653,67.7557373
		c-19.1353149,21.4501953-30.5131187,49.4755249-30.0158043,80.0184326
		c0.5315552,32.6471558,14.5303917,62.0785522,36.8123131,83.4649658
		c-49.9182701,31.7106934-81.7123413,81.3894043-80.8087158,136.8901367
		c1.531311,94.0455322,96.3070068,169.1086426,211.687561,167.657959c0.7836304-0.0097656,1.553894-0.0606689,2.3354492-0.0776367
		c44.8218536,48.3308105,102.4676056,77.2102051,165.0021515,76.4240723
		c56.2096558-0.7067871,107.7069702-25.244751,148.938446-66.1098633
		c17.74646,29.8093262,51.295166,49.7236328,89.4474487,49.2441406
		c44.9825439-0.5656738,82.6459961-29.3067627,95.1994629-68.5666504c0.6530762-0.003418,1.3029785,0.0037842,1.9572754-0.0043945
		c0.7836914-0.0097656,1.5539551-0.060791,2.3355713-0.0777588
		c44.8216553,48.3306885,102.4674072,77.2103271,165.0020752,76.4240723
		c56.2097168-0.706665,107.7070313-25.244751,148.9385376-66.1097412
		c17.7463379,29.8093262,51.295166,49.7235107,89.4473877,49.2438965
		c55.9141846-0.7030029,100.5303955-44.9350586,99.6533203-98.7963867
		c-0.0876465-5.387207-0.6345215-10.6640625-1.5904541-15.8027344
		C1324.7026367,770.520813,1391.463623,649.8236694,1389.1740723,509.201416z"/>
	<path fill="#E7EBF2" d="M905.2284546,77.4516602c8.2838135-0.104187,14.8937988-6.6574707,14.763916-14.6370201
		c-0.1300049-7.9796143-6.9506836-14.3639526-15.234375-14.2598267s-14.8936768,6.6573486-14.7636719,14.6369629
		C890.1242065,71.1713257,896.9447632,77.5557861,905.2284546,77.4516602z"/>
	<path fill="#E7EBF2" d="M1039.7403564,918.6062622c-8.2835693,0.104248-14.8936768,6.6574707-14.7636719,14.6369629
		s6.9505615,14.3638916,15.2342529,14.2597656c8.2836914-0.1040039,14.8937988-6.6574707,14.7637939-14.6369629
		S1048.0241699,918.5021362,1039.7403564,918.6062622z"/>
	<path fill="#E7EBF2" d="M1305.5004883,227.8543091c8.2836914-0.1040649,14.8937988-6.6573486,14.763916-14.6369019
		s-6.9506836-14.3639526-15.234375-14.2598267c-8.2835693,0.104187-14.8935547,6.6574097-14.7636719,14.6369629
		C1290.3962402,221.5741577,1297.217041,227.9584961,1305.5004883,227.8543091z"/>
</g>
<g>
	<path fill="#CED9EA" d="M1083.986084,404.5630798c31.0738525-17.204071,52.1152344-50.3186951,52.1152344-88.3527527
		c0-55.7406921-45.1856689-100.9272766-100.9263916-100.9272766c-5.5750732,0-11.0419922,0.4593506-16.3711548,1.3287354
		c-47.3850098-96.0077057-171.399353-164.5067596-316.9281006-164.5067596
		c-124.3375854,0-232.966217,50.0044899-291.5201721,124.4444885c-12.563324-2.8182526-25.6262207-4.3150787-39.0401611-4.3150787
		c-98.0888062,0-177.6035767,79.5163116-177.6035767,177.6051025c0,65.6225281,35.5932007,122.9259338,88.5233765,153.6746216
		c-7.6442566,23.3036499-11.8462524,48.6337891-11.8462524,75.1328735
		c0,105.0571289,65.8313599,191.9007568,151.3947144,206.1685791c-3.0656738,6.3774414-4.7451477,13.1812134-4.7451477,20.255188
		c0,35.9813232,42.8888855,65.1501465,95.7947388,65.1501465c27.8341675,0,52.8913574-8.076416,70.3934937-20.9681396
		c21.9450684,19.4202881,50.7943115,31.21521,82.4028931,31.21521c33.7863159,0,64.4204102-13.4749146,86.838562-35.3361206
		c32.1608887,50.2678223,83.1488037,82.7630615,140.5861206,82.7630615
		c97.3268433,0,176.2258911-93.2443848,176.2258911-208.2670898c0-0.781311-0.0426025-1.5498657-0.0500488-2.3291016
		c50.5899658-43.8893433,81.2209473-100.8759155,81.2209473-163.2166138
		C1150.4510498,498.046814,1125.7319336,446.3214722,1083.986084,404.5630798z"/>
	<circle fill="#CED9EA" cx="233.9051819" cy="527.4445801" r="14.9525156"/>
	<circle fill="#CED9EA" cx="1135.8852539" cy="407.027771" r="14.952487"/>
	<circle fill="#CED9EA" cx="394.7307434" cy="130.936142" r="14.9525013"/>
</g>
<g>
	<g>
		<path fill="#FFFFFF" d="M260.5578613,819.8677979c-10.8579102,0-24.4931641-6.8505859-31.0424805-15.5947266
			c-4.2553711-5.6806641-5.5742188-11.8564453-3.8139648-17.8613281
			c3.4892578-11.9033203,21.8076172-35.4833984,36.7470703-53.3730469
			c-3.4946289-4.8496094-6.1191406-10.2568359-7.8046875-16.0830078
			c-3.9052734-13.4980469-2.3110352-27.7255859,4.4887695-40.0615234s17.9785156-21.2802734,31.4770508-25.1855469
			c4.7714844-1.3798828,9.6904297-2.0800781,14.621582-2.0800781c11.1870117,0,22.3310547,3.6865234,31.3798828,10.3798828
			c9.3564453,6.9208984,16.0112305,16.4873047,19.2451172,27.6660156
			c3.9052734,13.4990234,2.3110352,27.7265625-4.4882813,40.0615234
			c-6.800293,12.3369141-17.9794922,21.28125-31.4780273,25.1855469c-4.7583008,1.3769531-9.668457,2.0751953-14.5932617,2.0751953
			c-1.9731445,0-3.9702148-0.1142578-5.9462891-0.3398438c-2.8417969,8.1445313-7.0600586,19.8828125-11.4287109,30.7910156
			c-9.3212891,23.2783203-13.7475586,28.8476563-16.5620117,31.0996094
			C268.6052246,818.7506104,264.9709473,819.8677979,260.5578613,819.8677979z"/>
		<path fill="#231F20" d="M305.2311401,650.4888916c11.0040283,0,21.9666138,3.6260986,30.868103,10.2104492
			c9.2036133,6.8078613,15.7498779,16.2183838,18.9310303,27.2144775
			c3.8411865,13.277832,2.2729492,27.2730713-4.4160156,39.4075928
			c-6.6888428,12.1343994-17.6850586,20.9326172-30.9628906,24.7739258
			c-4.6816406,1.3543701-9.5112915,2.0411377-14.3547974,2.0411377c-2.1792603,0-4.3626709-0.1396484-6.5305786-0.4165039
			c-2.8444214,8.1704102-7.1643677,20.2249756-11.6425171,31.4082031
			c-9.2471313,23.0924072-13.5689087,28.5621338-16.3008423,30.7473145
			c-2.5982666,2.0783691-6.0518188,3.1320801-10.2647095,3.1320801c-10.616333,0-23.9494019-6.6984863-30.3540649-15.2497559
			c-4.0862427-5.4559326-5.3578491-11.3703613-3.6772461-17.1038818
			c3.5842896-12.2287598,23.5167847-37.4465332,37.0130615-53.5803223
			c-3.6378784-4.9112549-6.3446045-10.3937988-8.0697021-16.3570557
			c-3.8413086-13.2779541-2.2730713-27.2730713,4.4158936-39.4075928
			c6.6889038-12.1345215,17.6850586-20.9327393,30.9628296-24.7739258
			C295.5419312,651.1772461,300.3809204,650.4888916,305.2311401,650.4888916 M305.2311401,648.7686768
			c-5.0123291,0-10.012146,0.7111816-14.8605347,2.1138916c-13.7191772,3.9688721-25.0805664,13.05896-31.991272,25.5959473
			c-6.9107666,12.5368652-8.5308838,26.9967041-4.5618896,40.7160645
			c1.6500244,5.7037354,4.1860352,11.0130615,7.5457153,15.8015137
			c-14.9130249,17.8905029-32.9903564,41.2429199-36.4873657,53.1739502
			c-1.8389893,6.2739258-0.4727173,12.7122803,3.9511719,18.6190186c6.6939697,8.9376221,20.631897,15.9387207,31.730957,15.9387207
			c4.6133423,0,8.4284668-1.180542,11.3392944-3.5089111c3.0765991-2.4608154,7.4812622-8.1219482,16.8232422-31.4511719
			c4.2610474-10.6411133,8.3774414-22.064209,11.2166748-30.1824951c1.7835693,0.1804199,3.5805054,0.2714844,5.359436,0.2714844
			c5.005249,0,9.9957275-0.7094727,14.8328857-2.1087646c13.7192993-3.9691162,25.0806885-13.0593262,31.991333-25.5960693
			c6.9107666-12.5368652,8.5309448-26.9968262,4.5620117-40.7160645
			c-3.2869263-11.3616943-10.0508423-21.0852051-19.5605469-28.1195068
			C327.9268188,652.5145264,316.6010132,648.7686768,305.2311401,648.7686768L305.2311401,648.7686768z"/>
	</g>
	<g>
		
			<ellipse transform="matrix(0.9606092 -0.2779028 0.2779028 0.9606092 -182.66922 112.7395859)" fill="none" stroke="#EDEDED" stroke-width="1.5362391" stroke-miterlimit="10" cx="306.3552551" cy="700.7369995" rx="43.782814" ry="43.782814"/>
		<g>
			<g>
				<path fill="#5A9F20" d="M261.0671692,714.6384277c-7.0621796-24.411438,7.0525818-50.017334,31.4640198-57.0795288
					s50.017334,7.0525513,57.0795288,31.4639893s-7.0525818,50.017334-31.4640198,57.0795288
					S268.129364,739.0498657,261.0671692,714.6384277z M345.1835327,690.3036499
					c-6.3559265-21.9701538-29.4014282-34.6735229-51.3715515-28.3175659
					c-21.9701538,6.355896-34.6735535,29.4013672-28.317627,51.371521s29.4014282,34.673584,51.371582,28.317627
					C338.8360901,735.3193359,351.5394592,712.2738037,345.1835327,690.3036499z"/>
			</g>
		</g>
		<path fill="#5A9F20" d="M296.9576111,741.0377197c0,0-20.753479,62.7767944-29.6279907,69.8753662
			c-8.8744812,7.0985107-39.9062805-7.112915-35.2113647-23.1307983s43.3409729-60.2489624,43.3409729-60.2489624
			L296.9576111,741.0377197z"/>
		<g>
			<g>
				
					<rect x="333.2880859" y="718.5827637" transform="matrix(0.4827463 -0.8757603 0.8757603 0.4827463 -461.1116638 667.8651733)" fill="#5A9F20" width="3.07215" height="11.4059935"/>
			</g>
		</g>
		<g>
			<g>
				
					<rect x="270.3623047" y="679.3482056" transform="matrix(0.4827463 -0.8757603 0.8757603 0.4827463 -459.3002014 592.4630737)" fill="#5A9F20" width="3.07215" height="11.4059935"/>
			</g>
		</g>
		<g>
			<g>
				
					<ellipse transform="matrix(0.9606092 -0.2779028 0.2779028 0.9606092 -183.0131683 112.5002289)" fill="#DA205D" cx="305.3389587" cy="701.8306274" rx="33.0291405" ry="33.0291405"/>
			</g>
		</g>
	</g>
</g>
<g>
	<g>
		<path fill="#BBC9E7" d="M910.0386963,368.8891296c3.8817139-12.0169373,5.9925537-24.5465393,5.9925537-37.4488831
			c0-88.2603302-96.2108154-159.8095245-214.8928223-159.8095245S486.245636,243.1799164,486.245636,331.4402466
			c0,6.3908081,0.5619812,12.680542,1.5428772,18.8752747c-24.8078613,5.2606812-42.8161621,21.0038757-42.8161621,39.6082153
			c0,9.509613,4.7162781,18.2659607,12.6295776,25.2627563c-19.3114319,23.8193665-31.1998596,56.1109924-31.1998596,91.7041931
			c0,66.8920288,41.9161377,122.1871338,96.3960876,131.2717285c-1.9519653,4.0606689-3.0213623,8.3927612-3.0213623,12.8968506
			c0,22.9100342,27.3082275,41.4824829,60.9944458,41.4824829c33.6862793,0,60.9945068-18.5724487,60.9945068-41.4824829
			c0-16.8704834-14.8166504-31.3781128-36.0750732-37.8604126c3.9391479-3.4772949,7.661438-7.2737427,11.1771851-11.3200073
			c27.3422852,21.1802368,62.4182739,36.7904663,101.8945313,44.2529907
			c16.5957031,48.7228394,56.9372559,83.1320801,104.1032715,83.1320801
			c61.9700317,0,112.2067261-59.3705444,112.2067261-132.6078491c0-0.4974365-0.0272217-0.9868774-0.0319214-1.4829712
			c32.2116089-27.9452515,51.7149658-64.2297974,51.7149658-103.9233398
			C986.7554321,442.1282959,956.9293213,398.2044067,910.0386963,368.8891296z"/>
		<circle fill="#BBC9E7" cx="426.4020691" cy="331.4402161" r="32.198616"/>
		<circle fill="#BBC9E7" cx="958.1937256" cy="294.9546509" r="19.4250679"/>
		<circle fill="#BBC9E7" cx="426.4020691" cy="253.2355804" r="9.5205669"/>
		<circle fill="#BBC9E7" cx="996.276001" cy="348.4412537" r="9.5205669"/>
	</g>
	<path fill="#BBC9E7" d="M670.4500732,652.6307373c-64.8759155,0.4559326-174.1184998,58.9758301-191.6353149,96.0441895
		c-17.5168457,37.0684204,4.7539978,70.2240601,54.137146,56.5511475
		c49.3831787-13.6729736,38.6468506-34.9754639,71.6115112-48.5316162
		c32.9645996-13.5562134,23.2816162,4.8414307,77.5062256,1.9365845
		c54.2246704-2.9049072,51.3197632-19.3659668,91.0199585-2.9049072s17.4293213,55.4265137,84.2418213,49.499939
		s91.7470093-22.3876343,69.5968018-62.0878296c-22.1502075-39.7001343-106.3920898-92.8717651-119.9482422-93.8824463
		C793.4238281,648.2451782,670.4500732,652.6307373,670.4500732,652.6307373z"/>
	<path fill="#FCCFB2" d="M983.6779175,563.5016479c-5.911377-1.1082764-25.4927979,0.7390137-13.6700439-3.6945801
		c11.8227539-4.4334717,9.605957-10.7142334,7.0196533-15.1477661c-2.5861206-4.4335327-14.7783203-2.9556885-13.3005371-4.4335327
		c1.4779663-1.4778442-0.3693237-7.758606-8.1279907-8.4974976c-0.5413208-0.0515747-1.0635986-0.0756226-1.5686035-0.0756226
		c-6.7354736,0-10.4545288,4.2626343-16.4116211,4.2626343c-6.4041138,0-20.1972046-25.1231995-38.9163818-30.5420227
		c-18.7190552-5.4184875-21.6748047-6.8963013-45.3201294-25.6156616
		c-23.6453247-18.7193909-75.3695679-19.7043762-75.3695679-19.7043762l-80.2960205-9.2649536v-0.3409424l-1.4777832,0.1703186
		l-1.4778442-0.1703186v0.3409424l-80.2956543,9.2649536c0,0-51.7242432,0.9849854-75.3695679,19.7043762
		c-23.6453247,18.7193604-26.6010742,20.1971741-45.3204651,25.6156616
		c-18.7188721,5.4188232-32.5122986,30.5420227-38.9162292,30.5420227c-5.9565735,0-9.677063-4.262085-16.4116516-4.2626343
		c-0.5056458,0-1.0270996,0.0240479-1.5687561,0.0756226c-7.758667,0.7388916-9.605957,7.0196533-8.1279907,8.4974976
		c1.4778137,1.4778442-10.7144165,0-13.3005371,4.4335327c-2.5862732,4.4335327-4.8030701,10.7142944,7.0196838,15.1477661
		c11.8227539,4.4335938-7.758667,2.5863037-13.6700439,3.6945801c-5.9111938,1.1083984-11.4530945,10.3449097-3.6945801,14.7783813
		c7.758667,4.4335938,21.7981873,5.1724854,26.6011047,5.1724854c4.802887,0-22.1675415,4.4334717-18.1034546,18.4729004
		c1.4089966,4.8671875,5.2181396,6.4934692,9.8369751,6.4934692c8.7045898,0,20.2911682-5.7693481,24.1531372-6.4934692
		c3.2291565-0.6054688,6.6794128-2.2033691,9.3258057-2.2033691c2.1981812,0,3.8414001,1.1016235,4.3442383,4.7895508
		c1.022644,7.5-0.7845764,13.4277344,7.6377258,13.4277344c0.7053223,0,1.4813538-0.0415039,2.3377075-0.1271362
		c11.0837708-1.1083984,15.1476746-24.0148315,14.7783508-27.3400269c-0.3694763-3.3250732,14.4088745-1.84729,28.817749-11.0837402
		c14.4088135-9.2365112,14.7783203-17.7340698,33.6207886-20.3202515
		c18.8424072-2.5861816,27.7093506-3.6945801,31.0344849-9.9753418c0,0-1.4777832,15.5172119,2.9555664,30.6651001
		c1.8001709,6.1498413,21.1353149,7.9768066,43.4668579,7.9768066c28.9694824,0,62.9837036-3.0733032,70.3265991-3.7702637
		c7.3425293,0.6968384,41.3595581,3.7702637,70.3269043,3.7702637c22.3354492,0,41.6661987-1.8261108,43.4663086-7.9768066
		c4.4335938-15.1478882,2.9557495-30.6651001,2.9557495-30.6651001c3.3251343,6.2807617,12.1920776,7.3891602,31.0345459,9.9753418
		c18.8424072,2.5861816,19.2119141,11.0837402,33.6207886,20.3202515
		c14.4088135,9.2364502,29.1871948,7.758667,28.817688,11.0837402c-0.3693237,3.3251953,3.6945801,26.2316284,14.7783203,27.3400269
		c0.8556519,0.0856323,1.6329956,0.1271362,2.3377075,0.1271362c8.4242554,0,6.6151123-5.9271851,7.6377563-13.4277344
		c0.5028687-3.687439,2.1466064-4.7895508,4.3442383-4.7895508c2.6463623,0,6.0963135,1.5978394,9.3258057,2.2033691
		c3.8616333,0.7241211,15.4489136,6.4934692,24.1531372,6.4934692c4.6199341,0,8.4277954-1.6254272,9.8369751-6.4934692
		c4.0640869-14.0394287-22.906311-18.4729004-18.1034546-18.4729004c4.8029175,0,18.8424683-0.7388916,26.6011353-5.1724854
		C995.1309814,573.8465576,989.5891113,564.6100464,983.6779175,563.5016479z"/>
	<path fill="#E5B498" d="M487.684021,590.2683716c0,0,12.1818542-4.0452881,25.3358154-17.454895
		c13.1539917-13.4096069,15.8653564-13.7727051,39.5643921-19.5824585
		c23.6989746-5.8098145,27.3300781-17.0662231,33.5029907-6.8991089s15.2893066,26.5113525,66.8125,31.2970581
		s96.5876465,2.47229,116.1956177-2.2481689c19.6080322-4.720459,30.5014038-6.5360107,34.8587036-20.6973267
		c4.3573608-14.161377,14.5244751-7.9884644,30.1382446-2.1787109c15.6138306,5.8098145,20.3342896,3.2680054,39.2160645,15.2506714
		c18.8817749,11.9827271,31.6483765,9.440918,34.8875732,19.6080322
		c3.2391357,10.1671143,17.0175171,34.2963257,23.0187378,17.1481323c0,0,7.5755615,10.4483643-4.286438,14.8056641
		c-11.8620605,4.3573608-17.4297485-8.0597534-19.8505249-18.4332886
		c-2.4207153-10.3735352-1.2103882-9.6472778-8.7146606-11.7049561c-7.5043335-2.0576172-17.7924805-4.4783325-31.8327637-15.008606
		c-14.0403442-10.5302124-3.7924805-9.8054199-26.3861084-12.829895
		c-22.5936279-3.0245361-25.1757202-7.1412354-25.1757202-7.1412354l-1.8155518,19.9711304
		c0,0-53.0142822,14.6455078-99.6135864,11.8616333c-46.5993042-2.7838135-67.7807617,1.9366455-98.0401001-4.2362671
		c-30.2592773-6.1729126-36.3110962-6.2939453-36.3110962-6.2939453l-2.2997437-20.2131958
		c0,0-14.6454468,4.3573608-31.2275391,6.6570435s-18.2766113,13.9871216-27.7175293,19.2788086
		C508.5024109,586.5162354,487.684021,590.2683716,487.684021,590.2683716z"/>
	<path fill="#FCCFB2" d="M602.9506226,677.8491821c0,0,6.5098267,20.6733398-6.6281128,44.2345581"/>
	<path fill="#231F20" d="M995.3829346,570.4912109c-0.9152222-5.4324341-5.6019897-10.2784424-10.9020386-11.2722168
		c-1.2122192-0.2272339-2.7380371-0.3475952-4.4387207-0.4192505c1.2802734-1.309082,2.1983643-2.757019,2.7669678-4.3546143
		c1.6885986-4.7440796-0.3428955-9.1100464-2.0178833-11.9813843c-2.4850464-4.2603149-8.1710815-5.1411133-12.4544678-5.567688
		c-0.0888062-0.3908081-0.2044067-0.7858276-0.347168-1.1828613c-1.2926636-3.5951538-5.1179199-7.6694336-11.9775391-8.3226929
		c-0.6634521-0.0631104-1.3300781-0.0950928-1.9816895-0.0950928c-4.3567505,0-7.583313,1.3679199-10.4300537,2.5750122
		c-2.1312866,0.9036865-3.833374,1.6254272-5.7335205,1.6837158c-1.5680542-0.6790161-5.4640503-4.9039307-8.3295898-8.0115967
		c-7.3154297-7.9328613-17.3341064-18.7973633-29.6233521-22.3548279
		c-17.9523926-5.1965942-20.2872314-6.2106628-43.8270874-24.8464355
		c-23.9754639-18.980835-73.5715332-20.5417786-77.7769165-20.6400757l-78.4592285-9.0529785
		c-0.6495972-0.3648071-1.3843384-0.5582275-2.1339722-0.5582275c-0.1657715,0-0.3322754,0.0093994-0.4987793,0.0286255
		l-0.9790039,0.1127625l-0.9790649-0.1127625c-0.1665039-0.0192261-0.3330078-0.0286255-0.4987793-0.0286255
		c-0.7496338-0.0000916-1.4844971,0.193512-2.1339722,0.5582275l-78.4588623,9.0529785
		c-4.2055664,0.0982971-53.8014526,1.6592407-77.7769165,20.6400757
		c-23.539978,18.6357727-25.8746948,19.6498413-43.8274536,24.8464355
		c-12.289032,3.5574646-22.3077698,14.4219666-29.6231689,22.3548279c-2.8657227,3.1075439-6.7617188,7.3324585-8.3295898,8.0115967
		c-1.900116-0.0584106-3.6025696-0.7800903-5.7342529-1.6837769c-2.8467407-1.2069092-6.0732422-2.5747681-10.4291687-2.5749512
		c-0.6510315-0.0001221-1.3180542,0.0317993-1.9820251,0.0950928c-6.8595886,0.6532593-10.684845,4.7275391-11.9775391,8.3226929
		c-0.1427307,0.3970337-0.2583313,0.7920532-0.347168,1.1828613c-4.2833862,0.4265747-9.9694214,1.307373-12.4544678,5.5678711
		c-1.6749573,2.8711548-3.7064819,7.2371216-2.0178528,11.9812012c0.5686035,1.5975952,1.4866638,3.0454102,2.7669373,4.3546143
		c-1.7006531,0.0716553-3.2265015,0.1919556-4.4387207,0.4191284c-5.3000183,0.9938965-9.9867859,5.8399048-10.9020081,11.2723389
		c-0.7918396,4.7007446,1.3944702,9.0267334,5.8486023,11.5720215c3.7695923,2.1541138,8.6246033,3.5013428,13.2774963,4.343811
		c-8.364502,6.1084595-7.8538818,13.1014404-6.8035583,16.7299805c1.0421753,3.5999146,4.2497253,9.6392212,14.022522,9.6392212
		c6.7115479,0,14.3730469-2.8242188,19.9670715-4.8864136c2.0256348-0.7466431,4.1200867-1.5186768,4.9892273-1.6817017
		c1.5458679-0.289917,3.0160522-0.7365112,4.4376526-1.1685181c1.4536743-0.4417114,2.9538269-0.8974609,3.8983154-0.9542847
		c0.0673523,0.2110596,0.1483765,0.5368652,0.213623,1.0150146c0.1877747,1.3782349,0.2718201,2.7401733,0.3530273,4.057373
		c0.3028259,4.9141235,0.8097229,13.138916,11.6019897,13.138916c0.8514099,0,1.783844-0.0499878,2.7712097-0.1487427
		c3.7866211-0.3786011,7.176239-2.387207,10.0749207-5.9697876c5.421875-6.701355,8.0297852-17.9780884,8.5426941-23.5628052
		c0.9198608-0.2329102,2.1327515-0.4885254,3.1889343-0.7112427c5.8773499-1.2387695,14.7590332-3.1110229,23.70755-8.84729
		c5.3711548-3.4431152,8.8804321-6.7562256,11.9765015-9.6793823c5.4204102-5.1176147,9.0011597-8.4984741,19.8853149-9.9923096
		l1.0157471-0.1393433c11.3031006-1.5502319,19.3065796-2.6478271,24.8635254-4.9297485
		c0.1624146,6.1149902,0.9182739,14.4034424,3.3363037,22.6658325c1.4078979,4.8100586,6.8186035,7.7015991,17.5440674,9.3759155
		c7.3719482,1.1507568,17.5007935,1.734375,30.1047363,1.734375c28.769104,0,62.7494507-3.0379028,70.3265991-3.7509155
		c7.5776367,0.7130127,41.5599365,3.7509155,70.3269043,3.7509155c12.6060791,0,22.7352905-0.5834351,30.1060181-1.7341309
		c10.7241821-1.6740723,16.1343384-4.5657959,17.5422974-9.3761597c2.4181519-8.2623901,3.1740112-16.5508423,3.3364258-22.6658325
		c5.5569458,2.2819214,13.5604858,3.3795166,24.8635254,4.9297485l1.0157471,0.1393433
		c10.8841553,1.4938354,14.4649048,4.8746948,19.8853149,9.9923096c3.0960693,2.9231567,6.6053467,6.2362671,11.9765015,9.6793823
		c8.9485474,5.7362671,17.8302002,7.6085205,23.7075806,8.84729c1.0561523,0.2227173,2.2692261,0.4783325,3.1889038,0.7112427
		c0.5129395,5.5847778,3.1208496,16.8614502,8.5426636,23.5628052c2.8987427,3.5825806,6.2883301,5.5911865,10.0747681,5.9697876
		c0.9866943,0.0987549,1.9191284,0.1487427,2.7713623,0.1487427c10.7935791,0,11.2997437-8.2240601,11.6022339-13.1377563
		c0.0811768-1.3175659,0.164856-2.6799316,0.3527832-4.0585327c0.0652466-0.4782715,0.1463013-0.8040771,0.2138672-1.0150146
		c0.9442749,0.0568237,2.4440918,0.5124512,3.8977661,0.9542236c1.4217529,0.4320068,2.8919678,0.8786621,4.4381714,1.1686401
		c0.8687744,0.1629028,2.9633789,0.9349365,4.9888916,1.6816406c5.5941772,2.0621948,13.2558594,4.8864136,19.9672241,4.8864136
		c9.7730103,0,12.9803467-6.0393066,14.022522-9.6392212c1.050354-3.62854,1.5604248-10.6218872-6.8040771-16.7303467
		c4.6548462-0.8424683,9.5089722-2.1895752,13.2780151-4.3434448
		C993.9884644,579.5179443,996.1747437,575.1919556,995.3829346,570.4912109z M960.7713623,583.4525146
		c-4.8028564,0,22.1675415,4.4334717,18.1034546,18.4729004c-1.4091797,4.868042-5.217041,6.4934692-9.8369751,6.4934692
		c-8.7042236,0-20.2915039-5.7693481-24.1531372-6.4934692c-3.2294922-0.6055298-6.6794434-2.2033691-9.3258057-2.2033691
		c-2.1976318,0-3.8413696,1.1021118-4.3442383,4.7895508c-1.022644,7.5005493,0.786499,13.4277344-7.6377563,13.4277344
		c-0.7047119,0-1.4820557-0.0415039-2.3377075-0.1271362c-11.0837402-1.1083984-15.147644-24.0148315-14.7783203-27.3400269
		c0.3695068-3.3250732-14.4088745-1.84729-28.817688-11.0837402c-14.4088745-9.2365112-14.7783813-17.7340698-33.6207886-20.3202515
		c-18.8424683-2.5861816-27.7094116-3.6945801-31.0345459-9.9753418c0,0,1.4778442,15.5172119-2.9557495,30.6651001
		c-1.8001099,6.1506958-21.1308594,7.9768066-43.4663086,7.9768066c-28.9673462,0-62.984375-3.0734253-70.3269043-3.7702637
		c-7.3428955,0.6969604-41.3571167,3.7702637-70.3265991,3.7702637c-22.331543,0-41.666687-1.8269653-43.4668579-7.9768066
		c-4.4333496-15.1478882-2.9555664-30.6651001-2.9555664-30.6651001
		c-3.3251343,6.2807617-12.1920776,7.3891602-31.0344849,9.9753418
		c-18.8424683,2.5861816-19.2119751,11.0837402-33.6207886,20.3202515
		c-14.4088745,9.2364502-29.1872253,7.758667-28.817749,11.0837402c0.3693237,3.3251953-3.6945801,26.2316284-14.7783508,27.3400269
		c-0.8563538,0.0856323-1.6323853,0.1271362-2.3377075,0.1271362c-8.4223022,0-6.6150818-5.9277344-7.6377258-13.4277344
		c-0.5028381-3.6879272-2.1460571-4.7895508-4.3442383-4.7895508c-2.6463928,0-6.0966492,1.5979004-9.3258057,2.2033691
		c-3.861969,0.7241211-15.4485474,6.4934692-24.1531372,6.4934692c-4.6188354,0-8.4279785-1.6262817-9.8369751-6.4934692
		c-4.0640869-14.0394287,22.9063416-18.4729004,18.1034546-18.4729004c-4.8029175,0-18.8424377-0.7388916-26.6011047-5.1724854
		c-7.7585144-4.4334717-2.2166138-13.6699829,3.6945801-14.7783813c5.911377-1.1082764,25.4927979,0.7390137,13.6700439-3.6945801
		c-11.8227539-4.4334717-9.605957-10.7142334-7.0196838-15.1477661c2.5861206-4.4335327,14.7783508-2.9556885,13.3005371-4.4335327
		c-1.4779663-1.4778442,0.3693237-7.758606,8.1279907-8.4974976c0.5416565-0.0515747,1.0631104-0.0756226,1.5687561-0.0756226
		c6.7345886,0.0005493,10.4550781,4.2626343,16.4116516,4.2626343c6.4039307,0,20.1973572-25.1231995,38.9162292-30.5420227
		c18.7193909-5.4184875,21.6751404-6.8963013,45.3204651-25.6156616
		c23.6453247-18.7193909,75.3695679-19.7043762,75.3695679-19.7043762l80.2956543-9.2649536v-0.3409424l1.4778442,0.1703186
		l1.4777832-0.1703186v0.3409424l80.2960205,9.2649536c0,0,51.7242432,0.9849854,75.3695679,19.7043762
		c23.6453247,18.7193604,26.6010742,20.1971741,45.3201294,25.6156616
		c18.7191772,5.4188232,32.5122681,30.5420227,38.9163818,30.5420227c5.9570923,0,9.6761475-4.2626343,16.4116211-4.2626343
		c0.5050049,0,1.0272827,0.0240479,1.5686035,0.0756226c7.758667,0.7388916,9.605957,7.0196533,8.1279907,8.4974976
		c-1.4777832,1.4778442,10.7144165,0,13.3005371,4.4335327c2.5863037,4.4335327,4.8031006,10.7142944-7.0196533,15.1477661
		c-11.8227539,4.4335938,7.758667,2.5863037,13.6700439,3.6945801c5.9111938,1.1083984,11.453064,10.3449097,3.6945801,14.7783813
		C979.6138306,582.713623,965.5742798,583.4525146,960.7713623,583.4525146z"/>
	<g>
		<path fill="#BBC9E7" d="M811.4493408,577.6289673c-7.3682251,1.9290161-50.0762939,12.2592773-107.2536011,9.1373901
			c-2.3835449-0.131958-4.7630005-0.0596313-7.0773315,0.2056274l-0.2382202,0.0283813l-0.2382202-0.0283813
			c-2.3129883-0.2652588-4.697998-0.3347168-7.0787964-0.2056274c-57.1744995,3.123291-99.8839722-7.2097778-107.2521973-9.1373901
			c-11.3639526,10.2848511-22.3526001,23.3951416-20.7709351,27.2702637
			c0.4293213,1.053833,2.7409058,1.5289917,6.1854248,1.2566528c0.9085693-0.069458,1.8129883-0.1049194,2.7049561-0.1049194
			c26.6295166,0,46.0154419,30.7836304,65.1257935,65.1430054c15.3887939,27.6660156,28.0172729,26.8106689,45.4849854,25.6177979
			c2.369751-0.1602783,4.821228-0.3276367,7.3696289-0.4297485l0.3102417-0.0127563l0.3005371,0.0794067
			c1.0249023,0.2694702,2.0304565,0.3517456,2.9957886,0.2567139c1.4902954-0.1531982,3.0525513-0.2637939,4.7755127-0.3361206
			l0.0872803-0.0028687l0.0872192,0.0028687c1.7243652,0.0723267,3.2866211,0.1829224,4.7741089,0.3361206
			c0.9639893,0.0950317,1.9708862,0.0127563,2.9957886-0.2567139l0.3005371-0.0794067l0.3102417,0.0127563
			c2.5484009,0.1021118,4.9998779,0.2694702,7.3710327,0.4297485c17.470459,1.1914673,30.0975952,2.0467529,45.4849854-25.6177979
			c19.7502441-35.5097046,39.7815552-67.1798706,67.8307495-65.0380859
			c3.4486694,0.2723389,5.7561035-0.2028198,6.1854248-1.2566528
			C833.802002,601.0241089,822.8133545,587.9138184,811.4493408,577.6289673z"/>
		<path fill="#231F20" d="M813.3980713,573.5836792l-0.8656616-0.7702026l-1.1038208,0.3163452
			c-0.4432373,0.1276245-45.1235352,12.6734009-107.0056763,9.2848511c-2.5332031-0.1390381-5.0704956-0.0709229-7.5427246,0.201416
			c-2.4708862-0.2709351-5.0054321-0.3389893-7.5441895-0.201416
			c-61.8931885,3.3842773-106.5610352-9.1586304-107.0042114-9.2848511l-1.1052856-0.3163452l-0.8641968,0.7702026
			c-6.2297974,5.5502319-26.2819214,24.3327026-22.7487793,32.9949341c1.869751,4.5828247,8.3114624,4.0835571,10.4332886,3.9232788
			c23.0742188-1.7971191,40.9186401,21.6873779,63.8114014,62.8480835
			c13.5107422,24.2872925,26.0187378,28.2616577,39.6056519,28.2616577c3.2160034,0,6.4943237-0.2226563,9.8585205-0.4510498
			c2.2492676-0.1531372,4.5718994-0.3120117,6.958252-0.4127197c1.4044189,0.333313,2.8032837,0.4326172,4.1605835,0.2921753
			c1.3822021-0.1418457,2.835083-0.2439575,4.4389648-0.3134766c1.6052246,0.069519,3.0567017,0.1716309,4.437561,0.3134766
			c1.355896,0.1404419,2.7561646,0.0411377,4.1605225-0.2921753c2.3863525,0.100708,4.7090454,0.2595825,6.958313,0.4127197
			c17.5853882,1.1943359,32.7581787,2.2240601,49.4655151-27.8106079
			c22.8927612-41.1607056,40.7191772-64.6338501,63.8114014-62.8480835
			c2.1190796,0.1616821,8.5621338,0.6610107,10.4332886-3.9232788
			C839.6799316,597.9163818,819.6278076,579.1339111,813.3980713,573.5836792z M832.2202759,604.899231
			c-0.4293213,1.053833-2.7367554,1.5289917-6.1854248,1.2566528
			c-28.0491943-2.1417847-48.0805054,29.5283813-67.8307495,65.0380859
			c-15.3873901,27.6645508-28.0145264,26.8092651-45.4849854,25.6177979
			c-2.3711548-0.1602783-4.8226318-0.3276367-7.3710327-0.4297485l-0.3102417-0.0127563l-0.3005371,0.0794067
			c-1.0249023,0.2694702-2.0317993,0.3517456-2.9957886,0.2567139c-1.4874878-0.1531982-3.0497437-0.2637939-4.7741089-0.3361206
			l-0.0872192-0.0028687l-0.0872803,0.0028687c-1.7229614,0.0723267-3.2852173,0.1829224-4.7755127,0.3361206
			c-0.965332,0.0950317-1.9708862,0.0127563-2.9957886-0.2567139l-0.3005371-0.0794067l-0.3102417,0.0127563
			c-2.5484009,0.1021118-4.9998779,0.2694702-7.3696289,0.4297485
			c-17.4677124,1.1928711-30.0961914,2.0482178-45.4849854-25.6177979
			c-19.1103516-34.359375-38.4962769-65.1430054-65.1257935-65.1430054c-0.8919678,0-1.7963867,0.0354614-2.7049561,0.1049194
			c-3.444519,0.2723389-5.7561035-0.2028198-6.1854248-1.2566528c-1.581665-3.8751221,9.4069824-16.9854126,20.7709351-27.2702637
			c7.3682251,1.9276123,50.0776978,12.2606812,107.2521973,9.1373901c2.3807983-0.1290894,4.7658081-0.0596313,7.0787964,0.2056274
			l0.2382202,0.0283813l0.2382202-0.0283813c2.3143311-0.2652588,4.6937866-0.3375854,7.0773315-0.2056274
			c57.1773071,3.1218872,99.885376-7.208374,107.2536011-9.1373901
			C822.8133545,587.9138184,833.802002,601.0241089,832.2202759,604.899231z"/>
	</g>
	<g>
		<path fill="#FCCFB2" d="M613.161499,621.5067749c-18.4124756-10.6420898-32.7360229-16.2653809-44.4094849-16.2653809
			c-13.8583374,0-23.9838257,7.9177856-32.807312,24.7628784c0,0,14.7783203,63.1774292,19.9506836,94.5814819
			c2.9605713,17.9752197,7.3751831,24.0892334,12.270813,24.0892334c3.6575317,0,7.5829468-3.4094849,11.3745728-7.8331299
			c8.8669434-10.3447266,16.2561035-21.4285278,18.8424072-28.4481812c0.8035278-2.1813354,1.8217773-2.8288574,3.1309204-2.8288574
			c1.9109497,0,4.4424438,1.3779907,7.8369141,1.3779907c1.7646484,0,3.7624512-0.3724976,6.0272827-1.5049438
			c9.605835-4.8028564,25.4926147-7.0196533,28.817749-20.3201904
			C644.1960449,689.1176758,653.4324951,644.7825928,613.161499,621.5067749z"/>
		<path fill="#E5B498" d="M629.2974854,632.8583984c0,0,5.8097534,26.2196045-10.5302734,38.9284668
			c-16.3399658,12.7089233-27.5964355,7.4437866-32.6799927,15.432251s-21.7866821-4.3573608-21.7866821-4.3573608
			s13.6166382,49.0200806,10.8933105,60.2764893c-2.7233276,11.2564697,11.6195679-9.6224365,12.1642456-9.9855347
			s13.9797974-21.6051025,13.9797974-21.6051025s3.9942017,3.9942017,19.4264526-2.3602295
			c15.432251-6.3544922,23.0575562-8.5487671,25.9624634-19.5250854S646.5452881,641.8606567,629.2974854,632.8583984z"/>
		<path fill="#231F20" d="M648.0574341,663.2078247c-2.6589355-13.6555786-10.4933472-32.6295776-32.7154541-45.4735718
			c-20.1622925-11.6534424-34.5310669-16.8502808-46.5899658-16.8502808c-15.3319092,0-26.9832153,8.6107788-36.6671753,27.0984497
			c-0.4852905,0.9262695-0.6210938,1.9960938-0.3829346,3.0142822c0.1474609,0.6303711,14.8045654,63.3965454,19.894165,94.2971802
			c1.9611206,11.9076538,5.8126221,27.7384644,16.5701294,27.7384644c5.9071045,0,10.949707-4.9993286,14.6829834-9.3547363
			c9.2756348-10.8217163,16.7435303-22.124939,19.5475464-29.5759888c0.2666626,0.067688,0.5496216,0.1444702,0.7950439,0.2111206
			c1.5357666,0.416687,3.6392212,0.9874268,6.1592407,0.9874268c2.7225952,0,5.331604-0.6427612,7.9760132-1.9650269
			c2.0896606-1.0448608,4.6092529-1.9946289,7.2769165-3.0004883c9.2371826-3.4825439,20.7335205-7.8166504,23.8192749-20.1602783
			c0.0140381-0.0556641,0.0267944-0.1116943,0.0385132-0.1680908
			C648.5632935,689.5186768,650.9171143,677.894165,648.0574341,663.2078247z M644.1960449,689.1176758
			c-3.3251343,13.3005371-19.2119141,15.517334-28.817749,20.3201904c-2.2648315,1.1324463-4.2626343,1.5049438-6.0272827,1.5049438
			c-3.3944702,0-5.9259644-1.3779907-7.8369141-1.3779907c-1.3091431,0-2.3273926,0.647522-3.1309204,2.8288574
			c-2.5863037,7.0196533-9.9754639,18.1034546-18.8424072,28.4481812c-3.791626,4.423645-7.717041,7.8331299-11.3745728,7.8331299
			c-4.8956299,0-9.3102417-6.1140137-12.270813-24.0892334c-5.1723633-31.4040527-19.9506836-94.5814819-19.9506836-94.5814819
			c8.8234863-16.8450928,18.9489746-24.7628784,32.807312-24.7628784c11.6734619,0,25.9970093,5.623291,44.4094849,16.2653809
			C653.4324951,644.7825928,644.1960449,689.1176758,644.1960449,689.1176758z"/>
		<path fill="#FCCFB2" d="M531.6165771,781.8703003c13.847168,0,29.770874-6.1998901,34.993103-16.644104
			c7.3891602-14.7783813,8.8670044-37.6848755,0-66.5025635c-8.8669434-28.817749-18.5466919-45.6819458-29.4088135-63.2967529
			c-1.8098755-2.9349976-5.3108521-4.2532349-9.8079224-4.2532349c-22.4910889,0-69.9588623,32.942688-56.1035461,61.269104
			c7.3553162,15.0377197,15.8866577,21.0592041,21.7980347,43.5962524
			c5.911377,22.5369873,9.2364502,34.7290649,23.2758484,42.4877319
			C520.4807129,780.8022461,525.8703003,781.8703003,531.6165771,781.8703003z"/>
		<path fill="#E5B498" d="M470.5968628,693.3920288c0,0,24.5309448,42.3024902,52.30896,32.1353149
			c27.7780151-10.1671143,41.9393921-27.414856,41.3947144-38.6713257c0,0,11.0748901,25.7808838,9.2593384,48.838501
			c-1.8155518,23.0575562-3.6311035,29.2304688-11.0748901,37.7635498
			c-7.4437866,8.5331421-37.0373535,13.2536011-48.2938232,4.5388794
			c-11.2564697-8.7146606-19.0633545-19.9711304-20.15271-29.2304688c-1.089325-9.2593384-7.080658-24.6915283-11.6195679-33.40625
			C477.8800049,706.6455688,470.5968628,693.3920288,470.5968628,693.3920288z"/>
		<path fill="#231F20" d="M570.774292,697.4420776c-9.0137939-29.2947998-18.8580322-46.4532471-29.864502-64.3022461
			c-1.7790527-2.8847656-5.5679321-6.3235474-13.5166626-6.3235474c-16.3652039,0-44.0969543,15.1079712-56.7154236,35.3272095
			c-6.9902344,11.2006226-8.1320496,22.3399048-3.3025818,32.2137451c2.6550903,5.4284058,5.4438477,9.7137451,8.1407471,13.8579712
			c4.9697571,7.6369019,9.6639404,14.8503418,13.356781,28.9292603
			c5.9624329,22.7316895,9.5612793,36.4522705,25.3830261,45.1959839
			c4.6015015,2.5428467,10.6048584,3.8869629,17.3609009,3.8869629c14.592041,0,32.6364136-6.5443115,38.8903198-19.0524902
			C579.1790771,749.8308105,579.2739258,725.06604,570.774292,697.4420776z M493.0874329,736.0390015
			c-5.911377-22.5370483-14.4427185-28.5585327-21.7980347-43.5962524
			c-13.8553162-28.326416,33.6124573-61.269104,56.1035461-61.269104c4.4970703,0,7.9980469,1.3182373,9.8079224,4.2532349
			c10.8621216,17.6148071,20.5418701,34.4790039,29.4088135,63.2967529c8.8670044,28.817688,7.3891602,51.7241821,0,66.5025635
			c-5.222229,10.4442139-21.1459351,16.644104-34.993103,16.644104c-5.7462769,0-11.1358643-1.0680542-15.2532959-3.3435669
			C502.3238831,770.7680664,498.9988098,758.5759888,493.0874329,736.0390015z"/>
		<g>
			<path fill="#FCCFB2" d="M468.8626709,682.3044434c0,0-14.0943604,4.1554565-12.5030518-9.7773438
				c1.5913086-13.9327393,18.8682556-6.3025513,19.5502319,0"/>
			<path fill="#231F20" d="M464.5413208,685.0546265c-2.3446045,0-5.092041-0.4822388-7.2182312-2.2694702
				c-2.619812-2.2027588-3.6722717-5.7360229-3.127594-10.5046997c0.6992798-6.1218262,4.4055786-9.7741699,9.9174805-9.7741699
				c0.0127563,0,0.0241089,0,0.0368652,0.0014038c6.3757324,0.0184326,13.4039307,4.9573364,13.9259033,9.7855835
				c0.1290894,1.1956787-0.7347412,2.270813-1.9318542,2.3999023c-1.1999817,0.1234131-2.270874-0.7347412-2.3999634-1.9318237
				c-0.2396851-2.2084961-4.9814148-5.8835449-9.606842-5.8977661c-0.0085144,0-0.0170288,0-0.0255127,0
				c-3.3049011,0-5.1332092,1.9346924-5.5870972,5.9105225c-0.3673706,3.2211914,0.1687927,5.4636841,1.5942688,6.6679077
				c2.2609558,1.9119873,6.6367188,1.2028198,8.1331482,0.7716064c1.1588135-0.3418579,2.3644714,0.3290405,2.6992188,1.480835
				c0.3375854,1.1531372-0.3191528,2.3601685-1.4723206,2.6992188
				C469.3156738,684.4418945,467.1824036,685.0546265,464.5413208,685.0546265z"/>
		</g>
		<g>
			<path fill="#FCCFB2" d="M474.6677856,670.2493896c0,0-13.4187012,4.1554565-11.9036865-9.7773438
				c1.5150146-13.9327393,17.9637451-6.3025513,18.6130371,0"/>
			<path fill="#231F20" d="M470.5468445,672.9996338c-2.1885986,0-4.7402954-0.4567261-6.7643433-2.1262207
				c-2.6439209-2.1786499-3.7148132-5.7572632-3.1843262-10.6365967c0.6666565-6.1289063,4.2353516-9.7855835,9.5472717-9.7855835
				c0.0113525,0,0.0212708,0,0.0326233,0.0014038c6.1232605,0.0170288,12.8691711,4.9602051,13.3670349,9.796936
				c0.1234131,1.1957397-0.7474976,2.2666016-1.9446106,2.3900146c-1.185791,0.1035767-2.2666321-0.7460938-2.3900146-1.9446411
				c-0.2496643-2.4212036-4.968689-5.8735962-9.045166-5.8863525c-0.0056763,0-0.0127869,0-0.0198669,0
				c-3.0779419,0-4.7842712,1.9304199-5.2154541,5.8991089c-0.3616943,3.3275757,0.1843872,5.6168823,1.624054,6.8041382
				c2.1361084,1.7587891,6.2097778,1.0453491,7.4693298,0.6566772c1.1517334-0.3574219,2.3687134,0.2879639,2.7247314,1.4368286
				c0.3560181,1.1489258-0.286499,2.3687744-1.4368286,2.7247925
				C475.1566772,672.3783569,473.0985718,672.9996338,470.5468445,672.9996338z"/>
		</g>
		<g>
			<path fill="#FCCFB2" d="M484.3320618,658.7310791c0,0-14.9244385,4.6217041-13.2394104-10.8744507
				c1.6849976-15.4962158,19.9794922-7.0098267,20.7016296,0"/>
			<path fill="#231F20" d="M479.7466125,661.5474243c-2.3885803,0-5.165802-0.4978638-7.3657532-2.3106079
				c-2.8722839-2.3687134-4.0339355-6.2764282-3.4538269-11.6152954c0.7262268-6.6806641,4.6041565-10.664978,10.3756409-10.664978
				c0.0113525,0,0.0241089,0,0.0354614,0c6.700531,0.0198364,14.0804749,5.4083862,14.6237488,10.6777344
				c0.1233826,1.1957397-0.7474976,2.2666016-1.9446411,2.3900146c-1.1843567,0.1134644-2.2680359-0.7460938-2.3900146-1.9446411
				c-0.2865295-2.7828979-5.662262-6.7515869-10.3018799-6.7657471c-0.0070801,0-0.0155945,0-0.0226746,0
				c-3.5219116,0-5.5544739,2.2807617-6.0438232,6.7785645c-0.4113464,3.7885132,0.2255249,6.4069214,1.8935547,7.781311
				c2.9318542,2.4197998,8.4792175,0.7943115,8.5359802,0.7758789c1.1517334-0.3588257,2.3687134,0.2893677,2.7247314,1.4368286
				c0.3560181,1.1489258-0.286499,2.3687744-1.4368286,2.7247925
				C484.8060608,660.8651733,482.5437317,661.5474243,479.7466125,661.5474243z"/>
		</g>
		<g>
			<path fill="#FCCFB2" d="M501.8071899,648.8045654c0,0-18.067627,5.5950317-16.02771-13.1647339
				c2.0398865-18.7597046,24.1872559-8.486084,25.0614929,0"/>
			<path fill="#231F20" d="M496.252594,651.7590332c-2.805603,0-6.0565796-0.581543-8.6210632-2.6964111
				c-3.3516846-2.7615967-4.7034302-7.3572388-4.0183411-13.6577759
				c1.2254944-11.2678223,8.8465881-12.5018311,12.1103516-12.5018311c0.0127563,0,0.0241089,0,0.0368652,0
				c7.9075928,0.0227051,16.6123352,6.3388672,17.2477722,12.5145874c0.1234131,1.1971436-0.7474976,2.2666016-1.9446106,2.3900146
				c-1.1730347,0.1134644-2.2666016-0.7460938-2.3900146-1.9446411c-0.3687744-3.5828857-6.9515991-8.5856323-12.9259033-8.6026611
				c-0.0099487,0-0.0198669,0-0.0297852,0c-4.5360718,0-7.1516113,2.899231-7.7728577,8.6154175
				c-0.5162964,4.7488403,0.3106384,8.0551147,2.4580994,9.8252563c3.7318115,3.0779419,10.6890869,1.0411377,10.7600098,1.0227051
				c1.1531677-0.3560181,2.3687134,0.2893677,2.7247314,1.4368286c0.3560181,1.1489258-0.286499,2.3687134-1.4368286,2.7247314
				C502.2496033,650.9476929,499.5617371,651.7590332,496.252594,651.7590332z"/>
		</g>
		<g>
			<path fill="#FCCFB2" d="M524.1126099,650.038208c0,0-23.4149475,5.732666-18.9053345-19.1790771
				c4.5096436-24.9117432,31.4483032-9.0073853,31.6799316,2.4362793"/>
			<path fill="#231F20" d="M518.7626343,652.7873535c-3.7020264,0-8.4153748-0.7730103-11.8706055-4.0239868
				c-4.0481262-3.8084106-5.3360291-9.9628906-3.8282471-18.2931519
				c2.6127014-14.4351196,12.0805054-15.2507324,16.0066528-14.9457397
				c9.5586548,0.7616577,19.8364258,9.8734741,19.9952393,17.7272339c0.0241089,1.2027588-0.9318848,2.1984863-2.1346436,2.2225952
				c-1.1914673-0.0339966-2.1985474-0.930481-2.2226563-2.1347046c-0.1049805-5.2225342-8.0267334-12.8379517-15.982605-13.4705811
				c-5.9799805-0.4907227-9.940155,3.4552612-11.3755798,11.378479c-1.2254944,6.7756958-0.3787231,11.5982666,2.5162354,14.3329468
				c4.7133484,4.4495239,13.6422424,2.3630371,13.7315979,2.3403931c1.1729736-0.2780151,2.3474121,0.4354248,2.6296997,1.604187
				c0.2836914,1.1673584-0.4297485,2.3446045-1.5971069,2.6296997
				C524.4178467,652.2072144,521.9696655,652.7873535,518.7626343,652.7873535z"/>
		</g>
	</g>
	<g>
		<path fill="#FCCFB2" d="M786.0167236,621.5067749c18.4124756-10.6420898,32.7360229-16.2653809,44.4094849-16.2653809
			c13.8583374,0,23.9838257,7.9177856,32.807373,24.7628784c0,0-14.7783813,63.1774292-19.9507446,94.5814819
			c-2.9605713,17.9752197-7.3751831,24.0892334-12.270813,24.0892334c-3.6575317,0-7.5829468-3.4094849-11.3745117-7.8331299
			c-8.8670044-10.3447266-16.2561646-21.4285278-18.8424683-28.4481812
			c-0.8035278-2.1813354-1.8217163-2.8288574-3.1309204-2.8288574c-1.9109497,0-4.4424438,1.3779907-7.836853,1.3779907
			c-1.7647095,0-3.7625122-0.3724976-6.0273438-1.5049438c-9.6057739-4.8028564-25.4926147-7.0196533-28.817688-20.3201904
			C754.9822388,689.1176758,745.7457275,644.7825928,786.0167236,621.5067749z"/>
		<path fill="#E5B498" d="M769.8807983,632.8583984c0,0-5.8098145,26.2196045,10.5302124,38.9284668
			c16.3400269,12.7089233,27.5964355,7.4437866,32.6799927,15.432251s21.7866821-4.3573608,21.7866821-4.3573608
			s-13.6166382,49.0200806-10.8933105,60.2764893c2.7233276,11.2564697-11.6195679-9.6224365-12.1642456-9.9855347
			s-13.9797974-21.6051025-13.9797974-21.6051025s-3.9942017,3.9942017-19.4264526-2.3602295
			c-15.432251-6.3544922-23.0575562-8.5487671-25.9624634-19.5250854S752.6329956,641.8606567,769.8807983,632.8583984z"/>
		<path fill="#231F20" d="M750.7165527,690.0062866c0.0116577,0.0563965,0.0244751,0.1124268,0.0384521,0.1680908
			c3.0857544,12.3436279,14.5820923,16.6777344,23.8192749,20.1602783c2.6676636,1.0058594,5.1872559,1.9556274,7.2769165,3.0004883
			c2.6444702,1.3222656,5.253418,1.9650269,7.9760742,1.9650269c2.5199585,0,4.6234741-0.5707397,6.1592407-0.9874268
			c0.2453613-0.0666504,0.5283203-0.1434326,0.7949829-0.2111206c2.8040161,7.4510498,10.2719116,18.7542725,19.5475464,29.5759888
			c3.7332764,4.3554077,8.7758789,9.3547363,14.6829834,9.3547363c10.7575684,0,14.6090088-15.8308105,16.5701294-27.7384644
			c5.0895996-30.9006348,19.7467041-93.6668091,19.8942261-94.2971802c0.2380981-1.0181885,0.1022949-2.0880127-0.3829956-3.0142822
			c-9.68396-18.4876709-21.3352661-27.0984497-36.6671753-27.0984497c-12.0588989,0-26.4276733,5.1968384-46.5899658,16.8502808
			c-22.2221069,12.8439941-30.0564575,31.8179932-32.7154541,45.4735718
			C748.2611084,677.894165,750.6149292,689.5186768,750.7165527,690.0062866z M786.0167236,621.5067749
			c18.4124756-10.6420898,32.7360229-16.2653809,44.4094849-16.2653809c13.8583374,0,23.9838257,7.9177856,32.807373,24.7628784
			c0,0-14.7783813,63.1774292-19.9507446,94.5814819c-2.9605713,17.9752197-7.3751831,24.0892334-12.270813,24.0892334
			c-3.6575317,0-7.5829468-3.4094849-11.3745117-7.8331299c-8.8670044-10.3447266-16.2561646-21.4285278-18.8424683-28.4481812
			c-0.8035278-2.1813354-1.8217163-2.8288574-3.1309204-2.8288574c-1.9109497,0-4.4424438,1.3779907-7.836853,1.3779907
			c-1.7647095,0-3.7625122-0.3724976-6.0273438-1.5049438c-9.6057739-4.8028564-25.4926147-7.0196533-28.817688-20.3201904
			C754.9822388,689.1176758,745.7457275,644.7825928,786.0167236,621.5067749z"/>
		<path fill="#FCCFB2" d="M867.5616455,781.8703003c-13.847168,0-29.770874-6.1998901-34.993103-16.644104
			c-7.3891602-14.7783813-8.8669434-37.6848755,0-66.5025635c8.8670044-28.817749,18.5466919-45.6819458,29.4088745-63.2967529
			c1.8098755-2.9349976,5.3108521-4.2532349,9.8078613-4.2532349c22.4910889,0,69.9588623,32.942688,56.1035767,61.269104
			c-7.3553467,15.0377197-15.8866577,21.0592041-21.7980347,43.5962524
			c-5.911377,22.5369873-9.2364502,34.7290649-23.2758179,42.4877319
			C878.6975098,780.8022461,873.3079224,781.8703003,867.5616455,781.8703003z"/>
		<path fill="#E5B498" d="M928.5813599,693.3920288c0,0-24.5309448,42.3024902-52.30896,32.1353149
			c-27.7780151-10.1671143-41.9393311-27.414856-41.3947144-38.6713257c0,0-11.0748901,25.7808838-9.2593384,48.838501
			c1.8156128,23.0575562,3.6311646,29.2304688,11.0749512,37.7635498
			c7.4437866,8.5331421,37.0373535,13.2536011,48.2937622,4.5388794
			c11.2564697-8.7146606,19.0633545-19.9711304,20.15271-29.2304688s7.0806885-24.6915283,11.6195679-33.40625
			C921.2982178,706.6455688,928.5813599,693.3920288,928.5813599,693.3920288z"/>
		<path fill="#231F20" d="M828.6713257,767.1749268c6.2539063,12.5081787,24.2982788,19.0524902,38.8903198,19.0524902
			c6.7560425,0,12.7593994-1.3441162,17.3609009-3.8869629c15.8217773-8.7437134,19.4205933-22.4642944,25.3830566-45.1959839
			c3.6928101-14.0789185,8.3870239-21.2923584,13.3567505-28.9292603c2.6968994-4.1442261,5.4856567-8.4295654,8.1407471-13.8579712
			c4.8294678-9.8738403,3.6876831-21.0131226-3.3025513-32.2137451
			c-12.6184692-20.2192383-40.3502197-35.3272095-56.7154541-35.3272095c-7.9487305,0-11.7376099,3.4387817-13.5166626,6.3235474
			c-11.0064697,17.848999-20.850708,35.0074463-29.864502,64.3022461
			C819.9043579,725.06604,819.9992065,749.8308105,828.6713257,767.1749268z M882.8150024,778.5267334
			c-4.1174927,2.2755127-9.5070801,3.3435669-15.2533569,3.3435669c-13.847168,0-29.770874-6.1998901-34.993103-16.644104
			c-7.3891602-14.7783813-8.8669434-37.6848755,0-66.5025635c8.8670044-28.817749,18.5466919-45.6819458,29.4088745-63.2967529
			c1.8098755-2.9349976,5.3108521-4.2532349,9.8078613-4.2532349c22.4910889,0,69.9588623,32.942688,56.1035767,61.269104
			c-7.3553467,15.0377197-15.8866577,21.0592041-21.7980347,43.5962524
			C900.1794434,758.5759888,896.8543701,770.7680664,882.8150024,778.5267334z"/>
		<g>
			<path fill="#FCCFB2" d="M930.3155518,682.3044434c0,0,14.0943604,4.1554565,12.5030518-9.7773438
				c-1.5913086-13.9327393-18.8682251-6.3025513-19.5502319,0"/>
			<path fill="#231F20" d="M934.6369019,685.0546265c2.3446045,0,5.0921021-0.4822388,7.2182617-2.2694702
				c2.619812-2.2027588,3.6722412-5.7360229,3.1275635-10.5046997c-0.6992798-6.1218262-4.4055176-9.7741699-9.9174805-9.7741699
				c-0.0127563,0-0.0241089,0-0.0368652,0.0014038c-6.3757324,0.0184326-13.4039307,4.9573364-13.9259033,9.7855835
				c-0.1290894,1.1956787,0.7347412,2.270813,1.9318848,2.3999023c1.1999512,0.1234131,2.270874-0.7347412,2.3999634-1.9318237
				c0.2396851-2.2084961,4.9813843-5.8835449,9.6068115-5.8977661c0.0085449,0,0.0170288,0,0.0255127,0
				c3.3049316,0,5.1332397,1.9346924,5.5870972,5.9105225c0.3673706,3.2211914-0.1687622,5.4636841-1.5942383,6.6679077
				c-2.2609863,1.9119873-6.6367188,1.2028198-8.1331787,0.7716064c-1.1588135-0.3418579-2.3644409,0.3290405-2.6992188,1.480835
				c-0.3375854,1.1531372,0.3191528,2.3601685,1.4723511,2.6992188
				C929.8625488,684.4418945,931.9958496,685.0546265,934.6369019,685.0546265z"/>
		</g>
		<g>
			<path fill="#FCCFB2" d="M924.510437,670.2493896c0,0,13.4187012,4.1554565,11.9036865-9.7773438
				c-1.5150146-13.9327393-17.9637451-6.3025513-18.6130371,0"/>
			<path fill="#231F20" d="M928.6314087,672.9996338c2.1885986,0,4.7402954-0.4567261,6.7643433-2.1262207
				c2.6439209-2.1786499,3.7147827-5.7572632,3.1843262-10.6365967c-0.666687-6.1289063-4.2353516-9.7855835-9.5473022-9.7855835
				c-0.0113525,0-0.0212402,0-0.0325928,0.0014038c-6.123291,0.0170288-12.8692017,4.9602051-13.3670654,9.796936
				c-0.1234131,1.1957397,0.7474976,2.2666016,1.9446411,2.3900146c1.185791,0.1035767,2.2666016-0.7460938,2.3900146-1.9446411
				c0.2496338-2.4212036,4.968689-5.8735962,9.045166-5.8863525c0.0056763,0,0.0127563,0,0.0198364,0
				c3.0779419,0,4.7843018,1.9304199,5.2155151,5.8991089c0.3616333,3.3275757-0.1844482,5.6168823-1.6240845,6.8041382
				c-2.1361084,1.7587891-6.2097778,1.0453491-7.4693604,0.6566772c-1.1517334-0.3574219-2.3687134,0.2879639-2.7247314,1.4368286
				c-0.3560181,1.1489258,0.286499,2.3687744,1.4368286,2.7247925
				C924.0215454,672.3783569,926.0796509,672.9996338,928.6314087,672.9996338z"/>
		</g>
		<g>
			<path fill="#FCCFB2" d="M914.8461914,658.7310791c0,0,14.9244385,4.6217041,13.2393799-10.8744507
				c-1.6849976-15.4962158-19.9794922-7.0098267-20.7015991,0"/>
			<path fill="#231F20" d="M919.4316406,661.5474243c2.3885498,0,5.1657715-0.4978638,7.3657227-2.3106079
				c2.8723145-2.3687134,4.0339355-6.2764282,3.4538574-11.6152954c-0.7262573-6.6806641-4.604187-10.664978-10.3756714-10.664978
				c-0.0113525,0-0.0241089,0-0.0354614,0c-6.7005005,0.0198364-14.0804443,5.4083862-14.6237183,10.6777344
				c-0.1234131,1.1957397,0.7474976,2.2666016,1.9446411,2.3900146c1.1843262,0.1134644,2.2680054-0.7460938,2.3900146-1.9446411
				c0.286499-2.7828979,5.6622314-6.7515869,10.3018799-6.7657471c0.0070801,0,0.015564,0,0.022644,0
				c3.5219116,0,5.5545044,2.2807617,6.0438232,6.7785645c0.411377,3.7885132-0.2255249,6.4069214-1.8935547,7.781311
				c-2.9318237,2.4197998-8.479187,0.7943115-8.5359497,0.7758789c-1.1517334-0.3588257-2.3687134,0.2893677-2.7247314,1.4368286
				c-0.3560181,1.1489258,0.286499,2.3687744,1.4368286,2.7247925
				C914.3721924,660.8651733,916.6345215,661.5474243,919.4316406,661.5474243z"/>
		</g>
		<g>
			<path fill="#FCCFB2" d="M897.3710327,648.8045654c0,0,18.067627,5.5950317,16.02771-13.1647339
				c-2.039856-18.7597046-24.1872559-8.486084-25.0614624,0"/>
			<path fill="#231F20" d="M902.9256592,651.7590332c2.805603,0,6.0565796-0.581543,8.6210327-2.6964111
				c3.3516846-2.7615967,4.7034302-7.3572388,4.0183716-13.6577759
				c-1.2255249-11.2678223-8.8466187-12.5018311-12.1103516-12.5018311c-0.0127563,0-0.0241089,0-0.0368652,0
				c-7.9075928,0.0227051-16.6123657,6.3388672-17.2478027,12.5145874
				c-0.1234131,1.1971436,0.7474976,2.2666016,1.9446411,2.3900146c1.1730347,0.1134644,2.2666016-0.7460938,2.3900146-1.9446411
				c0.3687744-3.5828857,6.9515991-8.5856323,12.9259033-8.6026611c0.0099487,0,0.0198364,0,0.0297852,0
				c4.5360718,0,7.1516113,2.899231,7.7728271,8.6154175c0.5162964,4.7488403-0.3106079,8.0551147-2.4580688,9.8252563
				c-3.7318115,3.0779419-10.6890869,1.0411377-10.7600098,1.0227051c-1.1531982-0.3560181-2.3687134,0.2893677-2.7247314,1.4368286
				c-0.3560181,1.1489258,0.286499,2.3687134,1.4368286,2.7247314
				C896.9286499,650.9476929,899.6165161,651.7590332,902.9256592,651.7590332z"/>
		</g>
		<g>
			<path fill="#FCCFB2" d="M875.0656738,650.038208c0,0,23.414917,5.732666,18.9052734-19.1790771
				s-31.4483032-9.0073853-31.6799316,2.4362793"/>
			<path fill="#231F20" d="M880.4155884,652.7873535c3.7020264,0,8.4154053-0.7730103,11.8706055-4.0239868
				c4.0481567-3.8084106,5.3360596-9.9628906,3.8282471-18.2931519
				c-2.6126709-14.4351196-12.0805054-15.2507324-16.0066528-14.9457397
				c-9.5586548,0.7616577-19.8363647,9.8734741-19.9952393,17.7272339
				c-0.0241089,1.2027588,0.9318848,2.1984863,2.1347046,2.2225952c1.1914673-0.0339966,2.1984863-0.930481,2.2225952-2.1347046
				c0.1049805-5.2225342,8.0267944-12.8379517,15.982605-13.4705811c5.9799805-0.4907227,9.9401855,3.4552612,11.3756104,11.378479
				c1.2254639,6.7756958,0.3787231,11.5982666-2.5162354,14.3329468
				c-4.7133789,4.4495239-13.6422119,2.3630371-13.7315674,2.3403931c-1.1730347-0.2780151-2.3474731,0.4354248-2.6297607,1.604187
				c-0.2836914,1.1673584,0.4298096,2.3446045,1.5971069,2.6296997
				C874.760376,652.2072144,877.2085571,652.7873535,880.4155884,652.7873535z"/>
		</g>
	</g>
	<path fill="#E5B498" d="M636.5596924,486.7816162l-46.0326538-26.5071411c0,0,7.9059448,25.0546875,32.234436,36.6742554
		c24.3284302,11.6195679,111.8383179,25.8682861,154.3223267-3.7689819c42.4840698-29.6372681,66.8125-18.743927,66.8125-18.743927
		l-35.2218018-14.1613464c0,0-26.5071411,23.4801941-86.4205322,33.1636658S636.5596924,486.7816162,636.5596924,486.7816162z"/>
	<g>
		<g>
			<path fill="#FCCFB2" d="M836.3319702,406.8701477c-2.4155273,0-4.960144-0.3851013-7.5629272-1.1446533
				c-4.8154907-1.4042053-7.9203491-4.1786194-9.2267456-8.2451782
				c-4.4424438-13.8322754,14.3812256-38.0408936,15.1854248-39.0649719
				c0.2652588-0.3375854,0.6567383-0.5517578,1.085083-0.5914612c0.0440063-0.0042725,1.116333-0.1021423,2.7886353-0.1021423
				c5.9317627,0,19.9526367,1.2623901,22.0419922,12.9564209c1.3886108,7.7827759-0.7872314,19.9420471-7.6381226,28.124115
				C848.5869751,404.0801392,842.821167,406.8701477,836.3319702,406.8701477z"/>
			<path fill="#231F20" d="M838.6008911,359.2857971c5.6665039-0.0001831,18.6264648,1.1660156,20.50177,11.6676941
				c2.1460571,12.0178833-4.878418,34.352417-22.7716064,34.352417c-2.2084351,0-4.5810547-0.3398743-7.1239014-1.0815125
				c-23.1450195-6.7506409,6.7507324-44.8433838,6.7507324-44.8433838S836.9824829,359.2857971,838.6008911,359.2857971
				 M838.6021118,356.1575012L838.6021118,356.1575012c-1.7446289,0.0000916-2.8859253,0.104248-2.9335938,0.1087036
				c-0.8556519,0.0794983-1.6409302,0.5075073-2.1715698,1.1834717
				c-2.0666504,2.6333618-20.0578613,26.1419983-15.4430542,40.5089111
				c1.0139771,3.1566467,3.6201172,7.3272095,10.2774048,9.2689209c2.7453003,0.8006897,5.4367065,1.2066956,7.9997559,1.2066956
				c6.9668579,0,13.1468506-2.9832458,17.8722534-8.6271667c7.1585083-8.5499573,9.432373-21.2636414,7.9788818-29.4034424
				C860.5655518,361.3500366,851.9709473,356.1575012,838.6021118,356.1575012L838.6021118,356.1575012z"/>
		</g>
		<path fill="#E5B498" d="M833.8021851,363.6778564c0,0,14.3346558-1.3334656,16.0015259,8.0007629
			c1.6668091,9.3342285-4.6671143,27.6693115-20.6686401,23.0021973S833.8021851,363.6778564,833.8021851,363.6778564z"/>
	</g>
	<g>
		<g>
			<path fill="#FCCFB2" d="M557.3319092,406.8701477c-6.4891968-0.0007019-12.2550049-2.7907104-16.6733398-8.068573
				c-6.8508911-8.1820679-9.0267334-20.3413391-7.6381226-28.1234131
				c2.0892944-11.6940308,16.1102295-12.9564209,22.0419922-12.9564209c1.6723022,0,2.7446289,0.0978699,2.7885742,0.1021423
				c0.4284058,0.0397034,0.8212891,0.2538757,1.085083,0.5914612c0.8042603,1.0240784,19.6278687,25.2333984,15.184021,39.0649719
				c-1.3063354,4.0665588-4.40979,6.8409729-9.2252808,8.2451782c-2.6027832,0.759552-5.1473999,1.1446533-7.5615234,1.1446533
				C557.333313,406.8701477,557.333313,406.8701477,557.3319092,406.8701477z"/>
			<path fill="#231F20" d="M555.0626221,359.2857971c1.6184082,0,2.6430054,0.0952148,2.6430054,0.0952148
				s29.895752,38.0927429,6.7507324,44.8433838c-2.5428467,0.7416382-4.9154663,1.0815125-7.1239014,1.0815125
				c-17.8931885,0-24.9176636-22.3345337-22.7716064-34.352417
				C536.4361572,360.4518127,549.3961182,359.2857971,555.0626221,359.2857971 M555.0626221,356.1575012
				c-13.3695068,0-21.9646606,5.1925354-23.5812988,14.2460938c-1.4534912,8.139801,0.8203735,20.8534851,7.9788818,29.4034424
				c4.7254028,5.6439209,10.9053955,8.6271667,17.8722534,8.6271667c2.5630493,0,5.2544556-0.4060059,7.9997559-1.2066956
				c6.6572876-1.9417114,9.2634277-6.1122742,10.2774048-9.2689209
				c4.6148071-14.3669128-13.3764038-37.8755493-15.4430542-40.5089111
				c-0.5306396-0.6759644-1.3157349-1.1039734-2.1713867-1.1834717
				C557.9475098,356.2617493,556.8060303,356.1575012,555.0626221,356.1575012L555.0626221,356.1575012z"/>
		</g>
		<path fill="#E5B498" d="M559.8613892,363.6778564c0,0-14.3347168-1.3334656-16.0015259,8.0007629
			c-1.6668701,9.3342285,4.6671143,27.6693115,20.6686401,23.0021973
			C580.5299683,390.0137024,559.8613892,363.6778564,559.8613892,363.6778564z"/>
	</g>
	<g>
		<path fill="#231916" d="M589.8478394,234.5119019c-32.4737549,30.0794983-43.3094482,61.3381653-43.3094482,89.6791992
			c0,20.6101685,5.7625122,39.6244812,13.0689087,55.5499573c-3.9124756,5.6368713-5.2885742,11.415863-6.411499,16.5744629
			l-0.5539551,2.4723511c-0.3079834,1.3077087-0.4549561,2.7473755-0.4549561,4.2966614
			c0,10.3545532,6.6627808,25.5931702,17.6663208,39.728302c12.9719238,16.678772,51.1587524,55.639679,125.3242798,57.0987549
			c78.4457397,1.5628357,139.8289795-45.1900635,145.8563232-88.1255798
			c0.2348022-1.6627808,0.3531494-3.3207092,0.3531494-4.9737854c0-7.2618408-2.3234253-14.2864685-6.8422241-20.9749451
			c12.0789185-23.338623,18.27948-45.9812012,18.27948-66.3735657c0-12.7846985-2.4064331-24.6933899-7.2661743-35.3564453
			c-19.1516724-42.0163269-57.8826294-70.8070068-109.0651245-81.0577698
			C681.9475098,192.1118774,621.6444702,205.0392151,589.8478394,234.5119019z M696.5725098,488.0547791h0.0024414
			c-106.6965332-2.7662659-131.0726929-67.9126587-131.7571411-85.211792
			c-0.3671875-8.3988037,1.5987549-15.4423523,5.8338013-20.9371338l0.8973999-1.1655579l-0.6606445-1.3169556
			c-11.4182739-22.6755371-31.7636719-81.3657837,25.7663574-136.4039917
			c60.9403687-50.9782715,156.5499268-39.5813293,207.545166,3.1077728
			c42.4310303,35.5266876,49.3867798,86.2541962,19.085144,139.1703033l-0.9356689,1.629303l1.411499,1.2694092
			c0.3575439,0.3269348,8.7539063,8.0577698,6.7641602,22.2113342
			C826.4539185,439.4115906,778.2109375,490.1677246,696.5725098,488.0547791z"/>
		<path fill="#FCCFB2" d="M565.604126,379.4849548c0,0-41.8669434-69.3673706,24.5517578-137.8960419
			c0,0,82.5662842-75.9515686,202.5714111-9.0381165c0,0,93.0847778,50.8933868,36.369751,152.7655487
			c0,0,24.2694092,35.1905212-23.7766724,74.8096924c0,0-38.4020996,34.8209534-109.7849121,32.9830627
			c0,0-68.8866577,4.0977783-120.3790894-50.1211548C575.1563721,442.9879456,543.6464233,409.2850647,565.604126,379.4849548z"/>
		<path fill="#E5B498" d="M751.7431641,213.9963226c0,0,135.3786011,60.4713593,51.539978,171.7982635
			c0,0,22.0289307,59.1452332-59.7845459,93.2318115c-19.6982422,8.2139893-46.7271729,12.3680115-77.8815918,9.1612854
			c0,0,47.1865845,16.4939575,104.7733154-8.9862061c20.1386719-8.9051819,41.6398926-25.0436096,59.6967163-50.7983093
			c0,0,12.4534302-20.8851929-0.9899902-43.0868225c0,0,47.0303345-79.2436523-12.0673218-133.5242157
			C817.0297241,251.7921295,795.7279053,224.2994537,751.7431641,213.9963226z"/>
	</g>
	<path fill="#7F221B" d="M691.4142456,354.7451782c-29.6431274-0.0585022-62.3205566,19.5644531-58.819397,54.780426
		s25.4417114,32.8247986,33.8444824,31.0857239c8.402771-1.7390442,15.8718872-10.21698,26.1419678-9.3474426
		c10.2700195,0.8695374,16.805542,13.0429688,38.7460938,12.6081848
		c21.9405518-0.4347534,32.9108276-29.1292725,18.906189-52.6065979
		C736.2290039,367.788147,722.0131836,354.8055725,691.4142456,354.7451782z"/>
	<path fill="#5C1913" d="M686.8820801,382.3643188c-24.5093994,0.1089783-36.4673462,47.8378601-36.9258423,57.5684814
		c1.359375,0.4595642,6.2860107,2.9994812,16.4830933,0.6785278c8.3051758-1.8903198,15.4050903-10.585907,25.675354-9.8513794
		c8.921814,0.6382141,16.338501,13.6668396,38.27948,13.1211853
		C730.1739502,426.6062317,715.557373,382.2367859,686.8820801,382.3643188z"/>
	<path fill="#FFFEFF" d="M697.6921387,377.7575989c11.0060425,0.7444763,16.8694458-8.653717,19.9959106-18.4493103
		c-7.2946777-2.96521-15.8331299-4.5427246-26.3321533-4.5631104c-5.5013428-0.0108337-11.1066284,0.6591492-16.5662231,1.9780884
		C677.5164185,367.8534241,684.0704956,376.8367004,697.6921387,377.7575989z"/>
	<path fill="#EC6665" d="M686.8820801,400.0723267c-24.5093994,0.1289673-28.4275513,29.9809875-28.8860474,41.4973755
		c2.9968262,0.0016174,6.8682861-0.6447449,8.8120728-1.0469055c8.402771-1.7389526,15.9116211-10.0628662,25.3065796-9.2591248
		c8.9210205,0.7631836,14.6085205,10.1005859,30.8723755,12.2586975
		C722.7668457,423.0771484,715.557373,399.9213867,686.8820801,400.0723267z"/>
	<path fill="#3C2415" d="M650.140564,304.8743591c-3.6950073-0.1382751-6.8729858-0.4620667-9.8463745-0.5827026
		c-2.9559937-0.1339417-5.6063843-0.0211792-7.800415,0.5167847c-2.197937,0.5228882-4.0773926,1.4370117-6.1433716,3.1987915
		c-2.0563354,1.7521362-4.067749,4.2077942-6.5530396,6.9754944c-1.0127563-3.581604-0.6878052-7.3595276,1.0292358-10.9570007
		c0.8890381-1.7759094,2.180542-3.4698181,3.8597412-4.8351135c1.6942749-1.3343201,3.7130127-2.3253479,5.7885742-2.8017273
		c4.1876221-0.9821777,8.2442017-0.1927795,11.5716553,1.3473816
		C645.3733521,299.3340759,648.2481689,301.6357727,650.140564,304.8743591z"/>
	<path fill="#D68E5E" d="M621.1749268,281.8713684c2.928894,0.3707886,5.81073,0.582489,8.6339111,0.4859924
		c2.8065186-0.1277771,5.588562-0.5664063,7.9379272-1.7784424c2.3927002-1.1370239,4.1740723-3.1791382,5.2919922-5.6704102
		c1.0961304-2.5119324,1.6207275-5.3634644,1.9794312-8.2965698c0.6448364,2.8833008,0.6832886,5.9666443-0.2057495,8.9597778
		c-0.4518433,1.4916992-1.2039795,2.9199829-2.2032471,4.1876221c-1.0305786,1.2450867-2.3483276,2.2453003-3.7657471,2.9825439
		c-2.8892822,1.4235535-6.0786133,1.7602844-9.0800781,1.5013123
		C626.7530518,283.9789124,623.8253174,283.2067871,621.1749268,281.8713684z"/>
	<path fill="#D68E5E" d="M768.3873901,273.5520325c1.0139771,2.7717285,2.2097168,5.4040833,3.7224121,7.7644043
		c1.5254517,2.3352356,3.4029541,4.3973694,5.7407227,5.6090393c1.1506348,0.634552,2.4223022,1.0172729,3.736145,1.2093811
		c1.3132324,0.2287903,2.6815796,0.2081909,4.0605469,0.0623779c2.7659302-0.2884216,5.5369263-1.1411438,8.3379517-2.0909729
		c-2.3207397,1.8347168-5.017395,3.2643738-8.0206299,3.9578552c-2.9691162,0.7536011-6.3728027,0.5065918-9.2471924-0.9945374
		c-2.8563843-1.5412292-4.9456787-4.0917053-6.253418-6.8313599
		C769.1432495,279.4915161,768.4172363,276.5210571,768.3873901,273.5520325z"/>
	<path fill="#3C2415" d="M710.4122925,330.9014282c-2.3676147-2.8535767-4.7877808-5.5506592-7.4473877-7.8215637
		c-2.6543579-2.2140503-5.6544189-4.0462341-8.7049561-4.1080017c-3.0485229-0.190033-5.9805298,1.5968323-8.5350342,3.8944092
		c-2.5621948,2.3464355-4.7595215,5.2472839-7.0791016,8.1508789c1.0791016-3.5529785,2.696106-6.9855042,5.1670532-9.9657898
		c1.2216797-1.5050659,2.737915-2.8143616,4.4888916-3.888916c1.7735596-1.0365295,3.9310913-1.612915,6.0766602-1.5646667
		c2.1524658,0.0947266,4.1866455,0.8146667,5.9191895,1.8323669c1.7196045,1.0551453,3.2313232,2.3209229,4.4981079,3.7671204
		C707.3478394,324.0591125,709.2565308,327.3559265,710.4122925,330.9014282z"/>
	<path fill="#3C2415" d="M790.711853,319.3554688c-2.6888428-2.3927002-4.8359985-4.6233826-6.9450684-6.5559998
		c-2.0814819-1.9331665-4.0836792-3.4646912-5.8952637-4.2766418c-1.7890625-0.8031311-3.5606079-1.1716309-6.164917-0.8551025
		c-2.5725708,0.275177-5.538147,1.1820374-9.0622559,1.9890747c1.1019897-3.4515686,3.3195801-6.335144,6.6369629-8.3515015
		c1.6625366-0.9765015,3.642395-1.7113647,5.8221436-1.8430481c2.1610718-0.1390686,4.4356689,0.2719116,6.3800659,1.1917419
		c3.946167,1.8517761,6.4334106,5.087616,7.8896484,8.3228455
		C790.7901611,312.2689819,791.4046021,315.772522,790.711853,319.3554688z"/>
	<path fill="#27AAE1" d="M598.7904053,307.5735474c0,0-33.611084-10.5249023-41.7804565,14.9088745
		c-8.8366699,27.511322,26.6087646,19.1296692,25.9085693,1.6634521
		C582.2595825,307.7104187,598.7904053,307.5735474,598.7904053,307.5735474z"/>
	<path fill="#27AAE1" d="M546.0769653,286.5377808c0,0-22.1842651-27.3557434-43.0554504-10.6821289
		c-22.5760498,18.0355835,11.5916443,30.6529541,20.6668396,15.7130737
		C532.2279663,277.5104675,546.0769653,286.5377808,546.0769653,286.5377808z"/>
	<path fill="#27AAE1" d="M579.7297363,255.4377747c0,0-6.2139893-23.5361176-24.0994263-18.9539032
		c-19.3464355,4.9565125-1.3970337,22.6069183,8.5628662,15.7686005
		C573.5653076,245.8177185,579.7297363,255.4377747,579.7297363,255.4377747z"/>
	<path fill="#27AAE1" d="M805.3894653,307.5735474c0,0,33.611084-10.5249023,41.7804565,14.9088745
		c8.8366699,27.511322-26.6087646,19.1296692-25.9085693,1.6634521
		C821.9202881,307.7104187,805.3894653,307.5735474,805.3894653,307.5735474z"/>
	<path fill="#27AAE1" d="M858.1029663,286.5377808c0,0,22.1842041-27.3557434,43.0554199-10.6821289
		c22.5759888,18.0355835-11.5916748,30.6529541-20.6668701,15.7130737
		C871.9519043,277.5104675,858.1029663,286.5377808,858.1029663,286.5377808z"/>
	<path fill="#27AAE1" d="M824.4501343,255.4377747c0,0,6.2139893-23.5361176,24.0994263-18.9539032
		c19.3464355,4.9565125,1.3970337,22.6069183-8.5628662,15.7686005
		C830.614563,245.8177185,824.4501343,255.4377747,824.4501343,255.4377747z"/>
	<path fill="#27AAE1" d="M895.2889404,350.2677307c0,0,23.7614136-5.2876282,27.9038086,12.7047729
		c4.4807739,19.4621277-19.440979,11.6220703-17.9398193-0.3657837
		C906.6654663,351.3262939,895.2889404,350.2677307,895.2889404,350.2677307z"/>
	<path fill="#27AAE1" d="M495.6090698,401.2380371c0,0-23.7613831-5.2875977-27.9038086,12.7048035
		c-4.4807739,19.4620972,19.4410095,11.6220703,17.9398499-0.3657837
		C484.2325439,402.2966309,495.6090698,401.2380371,495.6090698,401.2380371z"/>
</g>
<g>
	<g>
		<path fill="#FFFFFF" d="M247.2545166,371.502533c-1.0107422,0-2.003418-0.1801758-2.9506836-0.5351563
			c-1.2739258-0.4780273-31.2299805-12.2509766-33.7714844-60.1767578
			c-2.0961914-39.5214844,2.1757813-49.6523438,6.6303711-54.3500977c2.3818359-2.5107422,5.5043945-3.8935547,8.7924805-3.8935547
			c3.6362305,0,7.1757813,1.6328125,10.5200195,4.8530273c2.4389648,2.3491211,4.8139648,5.484375,7.3276367,8.8037109
			c6.1640625,8.1376953,13.8354492,18.265625,23.7114258,18.265625c1.6206055,0,3.3378906-0.2568359,5.1035156-0.7631836
			c0.1035156-0.0292969,0.2055664-0.059082,0.3071289-0.0888672c-11.9545898-9.7949219-18.7685547-24.1489258-18.7685547-39.7026367
			c0-28.3354492,23.0527344-51.3881836,51.3881836-51.3881836c12.4213867,0,24.4111328,4.4926758,33.7617188,12.6508789
			c6.9912109,6.0991211,12.1835938,13.9326172,15.0649414,22.7104492c1.8032227-0.6010742,3.3618164-1.3574219,4.6445313-2.2548828
			c3.3203125-2.3237305,6.7958984-3.5024414,10.3305664-3.5024414c6.8393555,0,12.6674805,4.5117188,14.5029297,11.2265625
			c1.7480469,6.3920898-0.8227539,12.9316406-6.4023438,16.3564453c0.3261719,0.2636719,0.6494141,0.5415039,0.9619141,0.8388672
			c3.840332,3.6518555,3.2832031,7.7021484,2.8652344,9.2744141c-1.5146484,5.6914063-7.2861328,6.9189453-9.1826172,7.3227539
			c-2.1152344,0.449707-5.1850586,0.8818359-9.953125,1.4008789c-3.8525391,0.4189453-8.3417969,1.4677734-13.3496094,3.1181641
			c-1.3613281,2.1152344-2.8930664,4.1489258-4.559082,6.0537109c-0.074707,0.3295898-0.1367188,0.6352539-0.1870117,0.9160156
			c0.6967773,0.7602539,1.828125,1.8271484,2.6879883,2.6381836c3.5639648,3.3623047,8.4448242,7.9672852,12.0546875,15.0439453
			c4.2597656,8.3491211,5.65625,17.8544922,4.2705078,29.0595703c-2.3481445,18.9804688-11.440918,30.3579102-18.6552734,36.5605469
			c-7.8364258,6.737793-15.1914063,8.9951172-16.0043945,9.2304688c-0.7602539,0.2197266-1.5463867,0.331543-2.3364258,0.331543
			H247.2545166z"/>
		<path fill="#231F20" d="M305.5443726,193.6228333c12.1563721,0,23.890625,4.3966064,33.0411987,12.3800049
			c7.1420288,6.230896,12.3438721,14.3096924,15.069458,23.2541504c2.3442993-0.6734009,4.366333-1.59021,5.9890137-2.7260742
			c3.1323853-2.192688,6.3966064-3.3044434,9.7020264-3.3044434c6.3388062,0,11.7424316,4.1873169,13.446228,10.4195557
			c1.6384277,5.993103-0.8221436,12.1242676-6.1228027,15.2565308c-0.4321899,0.2554321-0.8224487,0.4902344-1.1745605,0.7059326
			c0.7628174,0.5561523,1.486084,1.0981445,2.1585693,1.7376709c3.4160767,3.2484741,2.9291382,6.8157349,2.5612793,8.1986694
			c-1.3410034,5.0407715-6.4342651,6.1244507-8.3515625,6.5324097c-2.0767212,0.4418945-5.1126099,0.8684692-9.8436279,1.3832397
			c-4.0300293,0.4384766-8.7119751,1.5437012-13.9451294,3.2901001c-1.4372559,2.2716064-3.0599976,4.4313965-4.8505249,6.4556274
			c-0.1854858,0.786499-0.288147,1.362793-0.3447876,1.7670898c0.659729,0.798645,2.0408936,2.1017456,3.0995483,3.100647
			c3.5057983,3.3076782,8.3070068,7.8375854,11.8305664,14.7443237c4.1567383,8.1478882,5.5169678,17.4464111,4.1585693,28.4268188
			c-2.3051758,18.6333008-11.2139893,29.7879639-18.2815552,35.8644409
			c-7.659668,6.5855103-14.8051758,8.7800903-15.5946655,9.008606c-0.6603394,0.1911621-1.3443604,0.288208-2.0317993,0.288208
			h-78.8054199c-0.8761597,0-1.7452393-0.1576538-2.5656128-0.465271
			c-1.246521-0.4674683-30.5578613-11.991272-33.0618286-59.2086792
			c-2.0738525-39.1072998,2.0368042-49.0090942,6.3313599-53.5372925c2.1725464-2.2907104,5.0130615-3.5522461,7.998291-3.552124
			c3.3422852,0.000061,6.6255493,1.5298462,9.7583618,4.5466919c2.37677,2.2887573,4.7265625,5.3910522,7.2142944,8.6755371
			c6.3104858,8.3314819,14.1641846,18.7004395,24.585144,18.7004395c1.7225342,0,3.5413208-0.2710571,5.4057617-0.8056641
			c0.8982544-0.2575073,1.6591187-0.5024414,2.3015747-0.7294312
			c-12.5609741-9.4927368-19.9689941-24.2601929-19.9689941-40.1160889
			C255.2527466,216.1835632,277.8134766,193.6228333,305.5443726,193.6228333 M305.5443726,191.4307556
			c-28.9395752,0-52.4837036,23.5441284-52.4837036,52.4837036c0,15.1616211,6.3383789,29.2064819,17.5309448,39.1525269
			c-1.0587769,0.2037964-2.088562,0.3065796-3.0772095,0.3065796c-9.3313599,0-16.8201904-9.887207-22.8376465-17.8317261
			c-2.5409546-3.3547974-4.940979-6.5234375-7.4412842-8.9311523c-3.5552979-3.4237061-7.3500366-5.159729-11.2788086-5.15979
			c-3.5927124-0.0001221-6.9981079,1.5041504-9.5888672,4.2357178c-4.8474731,5.1112061-9.0419922,15.3314209-6.9298096,55.1618652
			c2.5790405,48.6331177,33.1796875,60.6569824,34.4810791,61.1450806c1.0703125,0.4013062,2.1924438,0.6048584,3.3353271,0.6048584
			h78.8054199c0.8937988,0,1.7824707-0.1260376,2.6412964-0.3746338c0.8363647-0.2421265,8.4028931-2.564209,16.4142456-9.4520264
			c7.3606567-6.3285522,16.6368408-17.9295044,19.0279541-37.2575073
			c1.4139404-11.4292603-0.0192261-21.1416016-4.3814087-29.6921387
			c-3.6960449-7.244812-8.6567383-11.9251099-12.2789307-15.3425903c-0.7060547-0.6662598-1.5961914-1.5061646-2.2563477-2.1845703
			c0.0044556-0.0211792,0.0089722-0.0426636,0.0136108-0.0643311c1.5429077-1.7827759,2.9713135-3.675415,4.2574463-5.6410522
			c4.7877197-1.557373,9.0770874-2.5493164,12.7590332-2.9498901c4.8079224-0.5231323,7.911377-0.9605713,10.0627441-1.418396
			c2.0594482-0.4381714,8.3267212-1.7716675,10.0137329-8.112915c0.4656982-1.7509155,1.0897217-6.2438965-3.098877-10.2833862
			c5.1506958-3.8443604,7.4187622-10.3693237,5.6724854-16.757019c-1.9677734-7.1976318-8.2211304-12.0335693-15.56073-12.0335693
			c-3.7639771,0-7.4511719,1.2451172-10.9591064,3.7007446c-0.9484253,0.6638794-2.0658569,1.2471924-3.3375244,1.7433472
			c-3.0055542-8.5324707-8.1676025-16.1467896-15.0227661-22.1274414
			C330.4768066,196.0192566,318.2307129,191.4307556,305.5443726,191.4307556L305.5443726,191.4307556z"/>
	</g>
	<g>
		<path fill="#F1F2F2" d="M315.3658447,229.9118652c0,3.0520477,2.4742737,5.5263367,5.5263367,5.5263367
			c1.8377075,0,3.4541931-0.9066925,4.4588928-2.2866974c0.0339966,0.3314056,0.1001587,0.6533966,0.1001587,0.9937439
			c0,5.3953857-4.3738403,9.7692566-9.7692566,9.7692566c-5.3955078,0-9.7692566-4.3738708-9.7692566-9.7692566
			c0-5.395401,4.3737488-9.7692566,9.7692566-9.7692566c1.0352478,0,2.0136108,0.2046356,2.9499817,0.503006
			C316.7097168,225.7440643,315.3658447,227.6671448,315.3658447,229.9118652z"/>
		<path fill="#F7941D" d="M218.3149414,310.3454895c2.279541,42.9847412,28.3308563,52.7539978,28.3308563,52.7539978h78.8054352
			c0,0,24.7487183-7.1642761,28.6564331-38.7514954s-19.2128296-36.7976074-19.2128296-44.6130371
			c0-1.5803223,0.4307251-3.7252197,1.1107178-6.133667c2.540802-2.6584167,4.7466431-5.6378479,6.543335-8.8784485
			c5.7990723-2.0859985,12.1493225-3.881958,18.0716858-4.5263977c17.3684692-1.889679,12.0486755-2.6049805,7.1640625-6.8383636
			c-4.8846436-4.2333832-2.6051025-6.5127869,4.5590515-10.7461853c7.1640625-4.2333832,0.6512451-16.9334106-9.1180115-10.0949402
			c-4.8479004,3.3934937-10.8955994,4.6996765-15.7616272,5.1568909
			c-3.0235596-20.7812653-20.9086304-36.7440796-42.5282593-36.7440796c-23.7398071,0-42.9847412,19.2449188-42.9847412,42.9847412
			c0,14.9973297,7.6853027,28.1937103,19.3273315,35.8843842c4.2441101,4.2206116,5.6096802,8.3830566-6.9529724,11.9849854
			c-23.5907593,6.7640686-35.4950104-19.8643188-44.2873535-28.3308411
			C221.2457275,254.9862518,216.0355225,267.3607178,218.3149414,310.3454895z M318.631958,224.8789978
			c-1.9222412,0.8650665-3.2661133,2.788147-3.2661133,5.0328674c0,3.0520477,2.4742737,5.5263367,5.5263367,5.5263367
			c1.8377075,0,3.4541931-0.9066925,4.4588928-2.2866974c0.0339966,0.3314056,0.1001587,0.6533966,0.1001587,0.9937439
			c0,5.3953857-4.3738403,9.7692566-9.7692566,9.7692566c-5.3955078,0-9.7692566-4.3738708-9.7692566-9.7692566
			c0-5.395401,4.3737488-9.7692566,9.7692566-9.7692566C316.7172241,224.3759918,317.6955872,224.5806274,318.631958,224.8789978z
			 M246.3202362,303.1811829c3.582016,0,8.4666595,12.7000427,28.0051727,10.7461853
			c11.9494629-1.1949158,21.166687-12.0486755,30.6103821-4.5588074c9.443573,7.4895935,9.7692566,20.5154419-8.1410828,27.3539124
			c-17.9103394,6.838501-38.4258118,7.8154297-45.9155273-6.8384705S242.7380981,303.1811829,246.3202362,303.1811829z"/>
		<path fill="#F1F2F2" d="M246.3202362,303.1811829c3.582016,0,8.4666595,12.7000427,28.0051727,10.7461853
			c11.9494629-1.1949158,21.166687-12.0486755,30.6103821-4.5588074c9.443573,7.4895935,9.7692566,20.5154419-8.1410828,27.3539124
			c-17.9103394,6.838501-38.4258118,7.8154297-45.9155273-6.8384705S242.7380981,303.1811829,246.3202362,303.1811829z"/>
	</g>
</g>
<g>
	<g>
		<path fill="#FFFFFF" d="M1119.3665771,325.9317627c-8.9433594,0-14.8017578-6.0395508-25.2294922-17.6137695l-0.9355469-1.0375977
			c-8.4179688-9.3427734-18.8623047-20.9335938-27.1894531-31.4492188
			c-13.8017578-17.4282227-15.8144531-24.5-14.5898438-29.7558594c0.5166016-2.2138672,1.1396484-4.0024414,1.7470703-5.5009766
			c-4.2451172-0.0458984-6.7773438-2.9633789-7.6142578-3.9272461c-1.09375-1.2587891-2.2675781-2.9360352-3.8925781-5.2568359
			c-1.0537109-1.5073242-1.9472656-2.7138672-2.7373047-3.7792969c-2.5898438-3.4926758-4.7871094-6.4555664-4.1601563-10.5776367
			c0.5859375-3.8525391,3.3613281-5.878418,4.2724609-6.5439453l0.3359375-0.2480469
			c0.3857422-2.5527344,1.0859375-5.0073242,2.0878906-7.3168945c-1.625-0.625-3.5517578-1.3969727-5.6181641-2.4760742
			c-4.8710938-2.5458984-6.8349609-6.1987305-7.6240234-8.8149414c-2.0908203-6.9174805,1.5400391-13.5249023,3.7089844-17.4726563
			l0.09375-0.1694336c2.8212891-5.1396484,9.2792969-8.5932617,16.0693359-8.5932617
			c4.9482422,0,9.6298828,1.7324219,13.5410156,5.0097656c3.5341797,2.9624023,5.2158203,6.7680664,5.1191406,11.6074219
			c1.5800781-0.140625,3.0996094-0.2114258,4.5322266-0.2114258c2.0976563,0,4.0751953,0.1523438,5.8867188,0.4541016
			c1.0605469-0.7114258,1.6162109-1.0483398,1.9492188-1.2441406c1.8212891-1.0683594,3.7207031-1.6098633,5.6445313-1.6098633
			c5.8203125,0.0009766,8.9443359,4.3916016,11.9648438,8.6376953c0.4394531,0.6186523,0.9072266,1.2753906,1.4121094,1.9677734
			c0.2695313,0.3686523,0.5341797,0.7216797,0.7890625,1.0600586c1.8701172,2.487793,4.3007813,5.7211914,4.2460938,9.9697266
			c0.7402344-0.1660156,1.6220703-0.2954102,2.6171875-0.2954102c4.9375,0,9.3740234,2.8442383,17.5820313,11.2714844
			c6.7001953,6.8798828,18.4003906,20.8813477,29.1132813,34.8413086
			c19.5107422,25.4213867,20.0849609,29.7763672,20.3613281,31.8691406
			c0.7294922,5.5288086-2.7294922,12.515625-10.2832031,20.7661133
			c-6.5878906,7.1972656-15.0185547,13.9208984-23.7363281,18.9331055
			C1130.942749,322.9595947,1125.3265381,325.9317627,1119.3665771,325.9317627z"/>
		<path fill="#231F20" d="M1048.0909424,166.3795776c4.7147217,0.000061,9.1790771,1.6531982,12.9105225,4.7805786
			c4.5637207,3.824707,4.9661865,8.5911865,4.7148438,11.9433594c1.9569092-0.2112427,3.8265381-0.3182373,5.567627-0.3182373
			c2.2003174,0,4.2425537,0.1700439,6.1068115,0.5071411c1.2185059-0.8240356,1.8378906-1.2045288,2.2258301-1.4320068
			c1.6689453-0.9787598,3.4007568-1.4750366,5.147583-1.4750366c0.0004883,0,0.0010986,0,0.001709,0
			c5.3134766,0.0010376,8.1556396,3.9973755,11.1647949,8.2283325c0.4396973,0.6181641,0.9090576,1.2785034,1.4171143,1.9741211
			c0.2919922,0.3998413,0.5780029,0.7798462,0.8519287,1.1442261c2.0322266,2.7032471,4.5517578,6.0545654,3.8881836,10.6293335
			c0.9589844-0.3151245,2.2069092-0.6361694,3.7052002-0.6361694c4.6280518,0,8.887085,2.7694092,16.8787842,10.9749756
			c6.6756592,6.8543701,18.345459,20.8208618,29.0386963,34.7537842
			c19.3497314,25.2122803,19.9217529,29.5484619,20.1660156,31.4000244
			c0.6896973,5.2283325-2.6859131,11.9487305-10.0332031,19.9746094
			c-6.522583,7.125061-14.8691406,13.7822876-23.5018311,18.7451782
			c-7.7507324,4.4558105-13.2587891,7.3765869-18.9744873,7.3765869c-8.5272217,0-14.2655029-5.9285278-24.5009766-17.2896118
			l-0.9356689-1.0383301c-8.3901367-9.3108521-18.8321533-20.8985596-27.1489258-31.4006958
			c-13.5582275-17.1209106-15.5635986-23.9448853-14.4031982-28.923584
			c0.6959229-2.9860229,1.5939941-5.1709595,2.3280029-6.8294067c-0.4526367,0.0797729-0.9299316,0.1243896-1.435791,0.1243896
			c-3.8572998,0-6.2034912-2.7017212-6.9746094-3.5895386c-1.060791-1.2215576-2.2241211-2.8839111-3.8341064-5.1846924
			c-1.0751953-1.536377-1.9884033-2.7680664-2.7941895-3.8547974c-2.5128174-3.3887939-4.4976807-6.0654297-3.9320068-9.7830811
			c0.5245361-3.4475708,3.0507813-5.2925415,3.8811035-5.8989258c0.1610107-0.1174927,0.3847656-0.282959,0.6702881-0.4955444
			c0.4041748-2.9475708,1.2495117-5.7935181,2.5012207-8.4054565c-0.1097412-0.0419922-0.217041-0.0829468-0.3203125-0.1223755
			c-1.7225342-0.6578979-3.8664551-1.4766235-6.1697998-2.6803589c-4.5675049-2.3868408-6.4036865-5.7921143-7.1397705-8.2285156
			c-1.9707031-6.522522,1.5354004-12.9038086,3.630249-16.7164307l0.0925293-0.168396
			C1035.536499,169.6286011,1041.6489258,166.3793335,1048.0909424,166.3795776 M1048.0910645,164.4163208
			c-0.0001221,0-0.0001221,0-0.0001221,0c-7.1369629-0.0003052-13.940918,3.6582642-16.9307861,9.1038208l-0.0922852,0.1679077
			c-2.2434082,4.0831299-5.998291,10.9169922-3.7889404,18.2296143c0.8449707,2.7967529,2.9378662,6.697937,8.1098633,9.4007568
			c1.7266846,0.9023438,3.3494873,1.5906372,4.7827148,2.1572876c-0.7807617,1.9846191-1.3516846,4.0653076-1.7047119,6.2150879
			c-0.0025635,0.0018311-0.0050049,0.0036621-0.0074463,0.0054321c-2.6657715,1.9467773-4.2351074,4.3655396-4.6646729,7.1895142
			c-0.6885986,4.5255737,1.7324219,7.7906494,4.2956543,11.2474365c0.7980957,1.076355,1.7023926,2.2960205,2.7629395,3.8114014
			c1.6439209,2.3492432,2.831665,4.0466309,3.9602051,5.3463135c2.0650635,2.3773804,4.4029541,3.7703247,6.9667969,4.1553345
			c-0.4642334,1.2648926-0.9196777,2.7144165-1.3139648,4.406311c-1.3262939,5.6900635,0.6829834,12.791748,14.776123,30.5880127
			c8.3544922,10.5498047,18.8183594,22.1620483,27.2263184,31.4926147l0.9388428,1.0418701
			c10.6196289,11.7874756,16.59729,17.9385986,25.9594727,17.9385986c6.2032471,0,11.9277344-3.0241089,19.9530029-7.6377563
			c8.8029785-5.0608521,17.3162842-11.8516846,23.9714355-19.121582
			c7.7573242-8.4737549,11.3006592-15.7266235,10.5314941-21.5570679
			c-0.2872314-2.1776733-0.8850098-6.7090454-20.5549316-32.338562
			c-10.7353516-13.9877319-22.4656982-28.024292-29.1896973-34.9282837
			c-8.4239502-8.649292-13.0379639-11.5684204-18.2852783-11.5684204c-0.5983887,0-1.1580811,0.0430298-1.6741943,0.1118774
			c-0.333252-3.9787598-2.6055908-7.0013428-4.3497314-9.3213501c-0.2891846-0.3845825-0.5598145-0.7445068-0.8358154-1.1224976
			c-0.4918213-0.6733398-0.9468994-1.3132324-1.3737793-1.9133911l-0.0290527-0.0408325
			c-3.1654053-4.4506226-6.4383545-9.0524902-12.7642822-9.0536499c-2.1026611,0-4.1687012,0.5869751-6.1428223,1.744751
			c-0.3049316,0.178772-0.793457,0.4743652-1.6783447,1.0609741c-1.7585449-0.2694702-3.6586914-0.4058228-5.6611328-0.4058228
			c-1.1383057,0-2.3304443,0.0439453-3.5629883,0.1310425c-0.1717529-4.6080322-2.0019531-8.4008789-5.458374-11.2976074
			c-4.0894775-3.4274292-8.9898682-5.2390747-14.1716309-5.2391357H1048.0910645L1048.0910645,164.4163208z"/>
	</g>
	<g>
		<path fill="#27AAE1" d="M1093.3809814,206.0381317c0,0-0.8155518,3.0215454,5.9212646,3.4685059
			c6.7366943,0.4469757,4.9708252-6.3135986,18.677124,7.7595673
			c13.7064209,14.0731659,46.5864258,56.2381287,47.4050293,62.4437256
			c0.8184814,6.2056274-13.041626,22.2636108-30.3087158,32.1903381
			c-17.2672119,9.9266968-18.9656982,9.5679626-35.3516846-8.6198425
			c-16.3861084-18.1877747-42.8682861-47.3796082-40.9764404-55.4968262s5.6273193-9.0634766,1.8143311-14.5016327
			C1056.7487793,227.8437958,1093.3809814,206.0381317,1093.3809814,206.0381317z"/>
		<path fill="#FBB040" d="M1082.2225342,192.5030823c0,0-2.9655762-4.4411469-16.4832764-2.815979
			c-13.5175781,1.6251678-2.0111084-7.6995392-8.9455566-13.5112457
			c-6.9344482-5.8117218-15.8013916-2.8937836-18.1802979,1.4388428c-2.3789063,4.3326111-6.8389893,12.217926,0.7114258,16.1636047
			s13.8031006,3.313797,9.888916,10.4054108c-3.9143066,7.0916138-2.3564453,14.2074432-2.3564453,14.2074432
			L1082.2225342,192.5030823z"/>
		<path fill="#1B75BC" d="M1064.3260498,200.7887115c0,0,15.2049561-11.2937927,18.5970459-13.2832031
			c3.3922119-1.9894104,5.0754395,1.3824615,9.135498,6.9419556s6.9943848,7.5418854-4.6300049,15.2651215
			c-11.6245117,7.7232361-26.2456055,18.7076263-30.5378418,21.4188995
			c-4.2922363,2.7112885-3.7897949,3.4827728-9.0712891-4.0646667c-5.2814941-7.5474243-7.1271973-8.4695587-4.3474121-10.499588
			C1046.2518311,214.5371857,1064.3260498,200.7887115,1064.3260498,200.7887115z"/>
	</g>
</g>
<g>
	<g>
		<path fill="#FFFFFF" d="M1139.6434326,803.6325073c-18.9365234,0-36.2099609-10.359375-45.0791016-27.0371094
			c-1.5791016-2.9697266-2.8623047-6.1015625-3.8261719-9.3359375
			c-17.9023438,14.6689453-35.1542969,16.5957031-35.9003906,16.6728516
			c-0.3457031,0.0351563-0.6894531,0.0527344-1.0341797,0.0527344c-0.6767578,0-1.3544922-0.0673828-2.0166016-0.2021484
			c-5.1992188-1.0546875-9.2373047-4.3818359-11.0791016-9.1289063c-2.4550781-6.328125-2.4658203-16.4589844,15.6474609-43.4892578
			c-0.6972656-0.0507813-1.4394531-0.1005859-2.2304688-0.1542969c-6.6591797-0.4472656-15.7636719-1.0595703-28.1054688-3.8476563
			c-17.9667969-4.0585938-23.1025391-15.8466797-24.5644531-22.5126953
			c-3.7978516-17.3173828,8.1152344-37.3623047,21.2529297-47.4306641
			c5.3681641-4.1152344,11.1855469-6.2011719,17.2919922-6.2011719c8.8671875,0,17.5986328,4.4042969,25.9501953,13.0908203
			c6.4970703,6.7568359,11.5908203,14.9003906,14.71875,20.5429688c1.2373047,2.2304688,2.4755859,4.1464844,3.6943359,5.71875
			c1.5996094-2.6552734,3.171875-5.3066406,4.71875-7.9150391c9.9804688-16.8291016,15.0488281-25.0615234,21.1464844-28.3046875
			c2.0039063-1.0664063,4.1308594-1.6064453,6.3212891-1.6064453c4.46875,0,8.6064453,2.2988281,11.3564453,6.3076172
			c5.7060547,8.3222656,5.7451172,23.9462891,0.1445313,44.1484375c3.7705078-0.8759766,7.6142578-1.3183594,11.4570313-1.3183594
			c18.9375,0,36.2109375,10.3603516,45.0820313,27.0380859c13.1982422,24.8193359,3.7431641,55.75-21.0771484,68.9492188
			C1156.1785889,801.5709839,1147.9246826,803.6325073,1139.6434326,803.6325073z M1117.9862061,761.3971558
			c0.3027344,0.7470703,0.6464844,1.4824219,1.0263672,2.1972656c4.0517578,7.6171875,11.9521484,12.3496094,20.6191406,12.3496094
			c3.8222656,0,7.4833984-0.9160156,10.8808594-2.7226563c5.4833984-2.9160156,9.5058594-7.8027344,11.3271484-13.7587891
			c1.8203125-5.9570313,1.2177734-12.2578125-1.6992188-17.7412109
			c-4.0507813-7.6181641-11.9521484-12.3505859-20.6191406-12.3505859c-0.4355469,0-0.8720703,0.0126953-1.3066406,0.0361328
			c0.2958984,4.0361328-0.7802734,8.6425781-3.2070313,13.7197266
			C1134.2176514,744.7750854,1127.2030029,758.9244995,1117.9862061,761.3971558z"/>
		<path fill="#231F20" d="M1039.9993896,652.3414917c8.4938965,0.0003662,16.9039307,4.2678223,24.9963379,12.6842041
			c6.399292,6.6556396,11.4261475,14.6955566,14.5163574,20.2681885c1.8731689,3.3781738,3.5626221,5.7197266,5.0212402,7.3536377
			c1.9345703-3.1893311,3.8284912-6.3828125,5.6871338-9.5164795c9.8527832-16.6132813,14.8455811-24.7355957,20.62854-27.8111572
			c1.8120117-0.963501,3.7299805-1.4521484,5.7011719-1.4521484c0.0004883,0,0.0014648,0,0.0020752,0
			c4.0231934,0.0004883,7.7635498,2.09021,10.2619629,5.7335205c5.6964111,8.3063965,5.3499756,24.699585-0.6679688,45.25354
			c4.3446045-1.2197266,8.8497314-1.848877,13.3618164-1.848877c18.4471436,0,35.2733154,10.0913086,43.9123535,26.3356934
			c12.8563232,24.1750488,3.6472168,54.3026123-20.5285645,67.1594238
			c-7.1456299,3.8001709-15.1845703,5.8087158-23.2479248,5.8087158c-18.4462891,0-35.2719727-10.0913086-43.9107666-26.3356934
			c-1.8706055-3.5175781-3.2974854-7.2324219-4.2675781-11.0545654
			c-18.1047363,15.5870361-35.8240967,17.6000977-36.7631836,17.6962891
			c-0.2989502,0.0306396-0.598999,0.0458984-0.8988037,0.0458984c-0.5883789,0-1.1761475-0.05896-1.7542725-0.1761475
			c-4.7484131-0.9632568-8.432373-3.9923096-10.1075439-8.3104248c-2.4228516-6.2453613-2.0836182-16.4674072,16.7817383-44.1513672
			c-1.3040771-0.1148682-2.7923584-0.2186279-4.5093994-0.3338623c-6.6064453-0.4438477-15.6544189-1.0515137-27.90271-3.8179932
			c-17.2530518-3.8970947-22.1687012-15.1464844-23.5631104-21.5053711
			c-3.6806641-16.7834473,7.9509277-36.2762451,20.7637939-46.0959473
			C1028.645752,654.3361206,1034.1928711,652.3412476,1039.9993896,652.3414917 M1139.631958,777.2675171
			c4.0415039,0,7.9111328-0.9680176,11.5012207-2.8773193c11.9840088-6.3731689,16.5489502-21.3070068,10.1763916-33.289917
			c-4.2816162-8.0511475-12.6296387-13.0526123-21.7880859-13.0526123c-0.9351807,0.0001221-1.8609619,0.052002-2.7763672,0.1553955
			c0.6523438,4.0959473-0.3266602,8.9023438-2.9320068,14.3529053c-0.3111572,0.6508789-7.7255859,15.9627686-16.8582764,17.7215576
			c-0.2456055,0.0473633-0.4951172,0.0863037-0.7475586,0.1170654c0.4334717,1.3077393,0.9797363,2.5853271,1.6367188,3.8208008
			C1122.1256104,772.2662964,1130.4741211,777.2675171,1139.631958,777.2675171 M1039.9995117,649.694519L1039.9995117,649.694519
			c-6.4020996-0.0002441-12.4910889,2.1782227-18.0975342,6.4750977
			c-13.4605713,10.31604-25.6540527,30.9124756-21.7392578,48.763916c1.5290527,6.9727783,6.883667,19.300415,25.5654297,23.5202637
			c12.4217529,2.8056641,21.5754395,3.4248047,28.2644043,3.8741455
			c-17.1452637,26.0328369-17.1623535,35.9898682-14.5185547,42.8045654
			c2.0076904,5.1755371,6.3995361,8.8011475,12.0490723,9.9471436c0.7497559,0.1519775,1.5168457,0.2290039,2.2805176,0.2290039
			c0.3891602,0,0.7823486-0.0200195,1.1688232-0.0596924c0.7409668-0.0759277,17.4195557-1.9309082,35.0892334-15.7531738
			c0.9023438,2.6611328,2.0181885,5.2459717,3.3343506,7.7210693c9.0994873,17.1105957,26.8206787,27.7398682,46.2479248,27.7398682
			c8.4952393,0,16.9641113-2.1158447,24.4908447-6.1186523c25.4643555-13.5421143,35.1643066-45.2756348,21.6226807-70.7392578
			c-9.0996094-17.1105957-26.8214111-27.7398682-46.2493896-27.7398682c-3.220459,0-6.4404297,0.3027344-9.6177979,0.9023438
			c5.1268311-19.5804443,4.8345947-34.8051758-0.8930664-43.1571045c-2.9993896-4.3739014-7.5352783-6.8829346-12.4445801-6.8834229
			c-2.4112549,0-4.7475586,0.5927734-6.9462891,1.7619629c-6.4106445,3.4094238-11.5540771,11.7536621-21.6625977,28.7980957
			l-0.0266113,0.0449219c-1.1970215,2.0180664-2.4207764,4.0814209-3.6600342,6.1507568
			c-0.8037109-1.1724854-1.6157227-2.4975586-2.4300537-3.9661865c-3.166748-5.7106934-8.3262939-13.9580078-14.9232178-20.8192139
			C1058.2932129,654.2357788,1049.241333,649.6948853,1039.9995117,649.694519L1039.9995117,649.694519L1039.9995117,649.694519z
			 M1119.7845459,762.1898804c9.06604-3.5936279,15.6424561-16.8726807,16.416748-18.4923096
			c2.2578125-4.7236328,3.3911133-9.0831299,3.3847656-13.0028076c8.1512451,0.0233154,15.5754395,4.4821777,19.3864746,11.6483154
			c5.6872559,10.694458,1.6130371,24.0222168-9.0822754,29.710083c-3.2032471,1.7036133-6.6546631,2.5673828-10.2583008,2.5673828
			c-8.1767578,0-15.6298828-4.4632568-19.4509277-11.6480713
			C1120.0438232,762.7144165,1119.9116211,762.4533081,1119.7845459,762.1898804L1119.7845459,762.1898804z"/>
	</g>
	<g>
		<g>
			<path fill="#BE1E2D" d="M1175.6300049,733.484436c10.5721436,19.8796997,2.9984131,44.6542358-16.8812256,55.2263794
				c-19.8797607,10.5721436-44.6534424,3.000061-55.2255859-16.8796387s-3.0004883-44.6542358,16.8791504-55.2263794
				C1140.2821045,706.0326538,1165.0578613,713.6046753,1175.6300049,733.484436z M1110.0535889,768.3582764
				c8.6572266,16.2789307,28.9440918,22.4789429,45.22229,13.8221436
				c16.2796631-8.6575928,22.480957-28.9442139,13.8237305-45.2231445
				c-8.6572266-16.2788696-28.9445801-22.4797363-45.2243652-13.8220825
				C1107.597168,731.7919922,1101.3963623,752.0793457,1110.0535889,768.3582764z"/>
		</g>
		<path fill="#EC008C" d="M1053.8033447,773.8383179c0,0,35.7536621-3.6555786,55.3129883-48.2645874
			c19.5593262-44.6089478,12.9500732-66.2259521,5.8754883-62.4636841
			c-7.074585,3.7623291-21.7236328,35.2883911-36.9390869,55.2478638
			C1062.8374023,738.3173218,1040.5002441,771.1394653,1053.8033447,773.8383179z"/>
		<path fill="#FBB040" d="M1075.5394287,728.0717163c4.0546875,4.4967651,7.0385742,11.2661743,16.2615967-0.2706909
			c9.2230225-11.5368042,9.7174072-21.6276855,2.3464355-21.84198c-7.3708496-0.2142944-14.4296875-2.0996704-22.3519287-16.3864136
			c-7.9223633-14.2867432-25.0617676-37.9829102-42.9163818-24.2990112
			c-17.8547363,13.6838379-29.1867065,45.5401611-0.6239014,51.9916382
			C1056.8179932,723.7167358,1066.1794434,717.6911011,1075.5394287,728.0717163z"/>
		<path fill="#EE2A7B" d="M1094.2138672,741.5271606c1.3778076-0.0346069,16.9553223,10.8791504,21.0714111,10.0863647
			c4.1160889-0.7927246,15.5567627-17.3485107,12.2285156-23.6068115
			c-3.328125-6.2582397-19.9421387-14.5264893-19.9421387-14.5264893L1094.2138672,741.5271606z"/>
	</g>
</g>
</svg>
